<?xml version="1.0" encoding="utf-8" standalone="no"?>
<!DOCTYPE svg PUBLIC "-//W3C//DTD SVG 1.1//EN"
  "http://www.w3.org/Graphics/SVG/1.1/DTD/svg11.dtd">
<!-- Created with matplotlib (http://matplotlib.org/) -->
<svg height="345pt" version="1.1" viewBox="0 0 460 345" width="460pt" xmlns="http://www.w3.org/2000/svg" xmlns:xlink="http://www.w3.org/1999/xlink">
 <defs>
  <style type="text/css">
*{stroke-linecap:butt;stroke-linejoin:round;}
  </style>
 </defs>
 <g id="figure_1">
  <g id="patch_1">
   <path d="M 0 345.6 
L 460.8 345.6 
L 460.8 0 
L 0 0 
z
" style="fill:#ffffff;"/>
  </g>
  <g id="axes_1">
   <g id="patch_2">
    <path d="M 103.104 307.584 
L 369.216 307.584 
L 369.216 41.472 
L 103.104 41.472 
z
" style="fill:#ffffff;"/>
   </g>
   <g id="PathCollection_1">
    <defs>
     <path d="M 0 5.477226 
C 1.452577 5.477226 2.845856 4.900111 3.872983 3.872983 
C 4.900111 2.845856 5.477226 1.452577 5.477226 0 
C 5.477226 -1.452577 4.900111 -2.845856 3.872983 -3.872983 
C 2.845856 -4.900111 1.452577 -5.477226 0 -5.477226 
C -1.452577 -5.477226 -2.845856 -4.900111 -3.872983 -3.872983 
C -4.900111 -2.845856 -5.477226 -1.452577 -5.477226 0 
C -5.477226 1.452577 -4.900111 2.845856 -3.872983 3.872983 
C -2.845856 4.900111 -1.452577 5.477226 0 5.477226 
z
" id="C0_0_92b1adea92"/>
    </defs>
    <g clip-path="url(#p56dec37c42)">
     <use style="fill:#ffa500;stroke:#000000;" x="186.996785" xlink:href="#C0_0_92b1adea92" y="56.292363"/>
    </g>
    <g clip-path="url(#p56dec37c42)">
     <use style="stroke:#000000;" x="219.736482" xlink:href="#C0_0_92b1adea92" y="84.280026"/>
    </g>
    <g clip-path="url(#p56dec37c42)">
     <use style="fill:#0000ff;stroke:#000000;" x="183.564147" xlink:href="#C0_0_92b1adea92" y="58.818943"/>
    </g>
    <g clip-path="url(#p56dec37c42)">
     <use style="fill:#ff0000;stroke:#000000;" x="206.187686" xlink:href="#C0_0_92b1adea92" y="79.299112"/>
    </g>
    <g clip-path="url(#p56dec37c42)">
     <use style="fill:#ffa500;stroke:#000000;" x="206.98792" xlink:href="#C0_0_92b1adea92" y="40.616472"/>
    </g>
    <g clip-path="url(#p56dec37c42)">
     <use style="fill:#ffa500;stroke:#000000;" x="185.284465" xlink:href="#C0_0_92b1adea92" y="59.204836"/>
    </g>
    <g clip-path="url(#p56dec37c42)">
     <use style="fill:#ffa500;stroke:#000000;" x="169.355741" xlink:href="#C0_0_92b1adea92" y="69.116056"/>
    </g>
    <g clip-path="url(#p56dec37c42)">
     <use style="fill:#ff0000;stroke:#000000;" x="210.257636" xlink:href="#C0_0_92b1adea92" y="81.807872"/>
    </g>
    <g clip-path="url(#p56dec37c42)">
     <use style="fill:#ffa500;stroke:#000000;" x="174.002432" xlink:href="#C0_0_92b1adea92" y="47.850442"/>
    </g>
    <g clip-path="url(#p56dec37c42)">
     <use style="fill:#0000ff;stroke:#000000;" x="179.731302" xlink:href="#C0_0_92b1adea92" y="37.530752"/>
    </g>
    <g clip-path="url(#p56dec37c42)">
     <use style="fill:#0000ff;stroke:#000000;" x="168.815872" xlink:href="#C0_0_92b1adea92" y="59.636258"/>
    </g>
    <g clip-path="url(#p56dec37c42)">
     <use style="fill:#0000ff;stroke:#000000;" x="188.004186" xlink:href="#C0_0_92b1adea92" y="24.9877"/>
    </g>
    <g clip-path="url(#p56dec37c42)">
     <use style="fill:#0000ff;stroke:#000000;" x="167.424103" xlink:href="#C0_0_92b1adea92" y="38.474561"/>
    </g>
    <g clip-path="url(#p56dec37c42)">
     <use style="stroke:#000000;" x="222.526277" xlink:href="#C0_0_92b1adea92" y="64.853037"/>
    </g>
    <g clip-path="url(#p56dec37c42)">
     <use style="fill:#0000ff;stroke:#000000;" x="210.254579" xlink:href="#C0_0_92b1adea92" y="67.403293"/>
    </g>
    <g clip-path="url(#p56dec37c42)">
     <use style="fill:#ff0000;stroke:#000000;" x="229.170376" xlink:href="#C0_0_92b1adea92" y="82.335044"/>
    </g>
    <g clip-path="url(#p56dec37c42)">
     <use style="stroke:#000000;" x="256.768098" xlink:href="#C0_0_92b1adea92" y="57.571259"/>
    </g>
    <g clip-path="url(#p56dec37c42)">
     <use style="fill:#0000ff;stroke:#000000;" x="185.666751" xlink:href="#C0_0_92b1adea92" y="66.348707"/>
    </g>
    <g clip-path="url(#p56dec37c42)">
     <use style="stroke:#000000;" x="233.755281" xlink:href="#C0_0_92b1adea92" y="59.422084"/>
    </g>
    <g clip-path="url(#p56dec37c42)">
     <use style="stroke:#000000;" x="223.322808" xlink:href="#C0_0_92b1adea92" y="61.386963"/>
    </g>
    <g clip-path="url(#p56dec37c42)">
     <use style="fill:#ffa500;stroke:#000000;" x="206.24739" xlink:href="#C0_0_92b1adea92" y="29.177306"/>
    </g>
    <g clip-path="url(#p56dec37c42)">
     <use style="fill:#0000ff;stroke:#000000;" x="179.753416" xlink:href="#C0_0_92b1adea92" y="53.091668"/>
    </g>
    <g clip-path="url(#p56dec37c42)">
     <use style="fill:#ffa500;stroke:#000000;" x="186.5402" xlink:href="#C0_0_92b1adea92" y="52.055872"/>
    </g>
    <g clip-path="url(#p56dec37c42)">
     <use style="fill:#ffa500;stroke:#000000;" x="169.281476" xlink:href="#C0_0_92b1adea92" y="25.43926"/>
    </g>
    <g clip-path="url(#p56dec37c42)">
     <use style="fill:#ff0000;stroke:#000000;" x="225.711265" xlink:href="#C0_0_92b1adea92" y="68.48035"/>
    </g>
    <g clip-path="url(#p56dec37c42)">
     <use style="fill:#ff0000;stroke:#000000;" x="241.719855" xlink:href="#C0_0_92b1adea92" y="85.784644"/>
    </g>
    <g clip-path="url(#p56dec37c42)">
     <use style="stroke:#000000;" x="280.508806" xlink:href="#C0_0_92b1adea92" y="38.278103"/>
    </g>
    <g clip-path="url(#p56dec37c42)">
     <use style="fill:#ffa500;stroke:#000000;" x="165.863742" xlink:href="#C0_0_92b1adea92" y="40.655986"/>
    </g>
    <g clip-path="url(#p56dec37c42)">
     <use style="fill:#ff0000;stroke:#000000;" x="260.787505" xlink:href="#C0_0_92b1adea92" y="76.765172"/>
    </g>
    <g clip-path="url(#p56dec37c42)">
     <use style="stroke:#000000;" x="256.054921" xlink:href="#C0_0_92b1adea92" y="48.85033"/>
    </g>
    <g clip-path="url(#p56dec37c42)">
     <use style="fill:#ffa500;stroke:#000000;" x="195.509268" xlink:href="#C0_0_92b1adea92" y="53.971138"/>
    </g>
    <g clip-path="url(#p56dec37c42)">
     <use style="stroke:#000000;" x="247.948515" xlink:href="#C0_0_92b1adea92" y="15.135005"/>
    </g>
    <g clip-path="url(#p56dec37c42)">
     <use style="fill:#0000ff;stroke:#000000;" x="172.053409" xlink:href="#C0_0_92b1adea92" y="60.723963"/>
    </g>
    <g clip-path="url(#p56dec37c42)">
     <use style="fill:#ff0000;stroke:#000000;" x="247.589522" xlink:href="#C0_0_92b1adea92" y="83.626652"/>
    </g>
    <g clip-path="url(#p56dec37c42)">
     <use style="fill:#0000ff;stroke:#000000;" x="177.72819" xlink:href="#C0_0_92b1adea92" y="46.909259"/>
    </g>
    <g clip-path="url(#p56dec37c42)">
     <use style="fill:#ffa500;stroke:#000000;" x="160.899133" xlink:href="#C0_0_92b1adea92" y="69.698829"/>
    </g>
    <g clip-path="url(#p56dec37c42)">
     <use style="fill:#0000ff;stroke:#000000;" x="209.363297" xlink:href="#C0_0_92b1adea92" y="58.764098"/>
    </g>
    <g clip-path="url(#p56dec37c42)">
     <use style="fill:#0000ff;stroke:#000000;" x="169.512266" xlink:href="#C0_0_92b1adea92" y="61.879499"/>
    </g>
    <g clip-path="url(#p56dec37c42)">
     <use style="fill:#ffa500;stroke:#000000;" x="168.334609" xlink:href="#C0_0_92b1adea92" y="66.085755"/>
    </g>
    <g clip-path="url(#p56dec37c42)">
     <use style="fill:#ff0000;stroke:#000000;" x="189.708551" xlink:href="#C0_0_92b1adea92" y="79.482426"/>
    </g>
    <g clip-path="url(#p56dec37c42)">
     <use style="fill:#0000ff;stroke:#000000;" x="178.727256" xlink:href="#C0_0_92b1adea92" y="29.278631"/>
    </g>
    <g clip-path="url(#p56dec37c42)">
     <use style="fill:#0000ff;stroke:#000000;" x="180.970273" xlink:href="#C0_0_92b1adea92" y="66.407723"/>
    </g>
    <g clip-path="url(#p56dec37c42)">
     <use style="fill:#ff0000;stroke:#000000;" x="256.490558" xlink:href="#C0_0_92b1adea92" y="88.598752"/>
    </g>
    <g clip-path="url(#p56dec37c42)">
     <use style="fill:#ff0000;stroke:#000000;" x="227.435528" xlink:href="#C0_0_92b1adea92" y="69.975269"/>
    </g>
    <g clip-path="url(#p56dec37c42)">
     <use style="stroke:#000000;" x="224.444058" xlink:href="#C0_0_92b1adea92" y="58.148001"/>
    </g>
    <g clip-path="url(#p56dec37c42)">
     <use style="fill:#ffa500;stroke:#000000;" x="204.179413" xlink:href="#C0_0_92b1adea92" y="41.186477"/>
    </g>
    <g clip-path="url(#p56dec37c42)">
     <use style="stroke:#000000;" x="264.695352" xlink:href="#C0_0_92b1adea92" y="36.101205"/>
    </g>
   </g>
   <g id="matplotlib.axis_1">
    <g id="xtick_1">
     <g id="line2d_1">
      <defs>
       <path d="M 0 0 
L 0 3.5 
" id="m4d282ccd0f" style="stroke:#000000;stroke-width:0.8;"/>
      </defs>
      <g>
       <use style="stroke:#000000;stroke-width:0.8;" x="103.104" xlink:href="#m4d282ccd0f" y="307.584"/>
      </g>
     </g>
     <g id="text_1">
      <!-- −14 -->
      <defs>
       <path d="M 10.59375 35.5 
L 73.1875 35.5 
L 73.1875 27.203125 
L 10.59375 27.203125 
z
" id="DejaVuSans-2212"/>
       <path d="M 12.40625 8.296875 
L 28.515625 8.296875 
L 28.515625 63.921875 
L 10.984375 60.40625 
L 10.984375 69.390625 
L 28.421875 72.90625 
L 38.28125 72.90625 
L 38.28125 8.296875 
L 54.390625 8.296875 
L 54.390625 0 
L 12.40625 0 
z
" id="DejaVuSans-31"/>
       <path d="M 37.796875 64.3125 
L 12.890625 25.390625 
L 37.796875 25.390625 
z
M 35.203125 72.90625 
L 47.609375 72.90625 
L 47.609375 25.390625 
L 58.015625 25.390625 
L 58.015625 17.1875 
L 47.609375 17.1875 
L 47.609375 0 
L 37.796875 0 
L 37.796875 17.1875 
L 4.890625 17.1875 
L 4.890625 26.703125 
z
" id="DejaVuSans-34"/>
      </defs>
      <g transform="translate(77.778375 332.82025)scale(0.24 -0.24)">
       <use xlink:href="#DejaVuSans-2212"/>
       <use x="83.789062" xlink:href="#DejaVuSans-31"/>
       <use x="147.412109" xlink:href="#DejaVuSans-34"/>
      </g>
     </g>
    </g>
    <g id="xtick_2">
     <g id="line2d_2">
      <g>
       <use style="stroke:#000000;stroke-width:0.8;" x="169.632" xlink:href="#m4d282ccd0f" y="307.584"/>
      </g>
     </g>
     <g id="text_2">
      <!-- −12 -->
      <defs>
       <path d="M 19.1875 8.296875 
L 53.609375 8.296875 
L 53.609375 0 
L 7.328125 0 
L 7.328125 8.296875 
Q 12.9375 14.109375 22.625 23.890625 
Q 32.328125 33.6875 34.8125 36.53125 
Q 39.546875 41.84375 41.421875 45.53125 
Q 43.3125 49.21875 43.3125 52.78125 
Q 43.3125 58.59375 39.234375 62.25 
Q 35.15625 65.921875 28.609375 65.921875 
Q 23.96875 65.921875 18.8125 64.3125 
Q 13.671875 62.703125 7.8125 59.421875 
L 7.8125 69.390625 
Q 13.765625 71.78125 18.9375 73 
Q 24.125 74.21875 28.421875 74.21875 
Q 39.75 74.21875 46.484375 68.546875 
Q 53.21875 62.890625 53.21875 53.421875 
Q 53.21875 48.921875 51.53125 44.890625 
Q 49.859375 40.875 45.40625 35.40625 
Q 44.1875 33.984375 37.640625 27.21875 
Q 31.109375 20.453125 19.1875 8.296875 
z
" id="DejaVuSans-32"/>
      </defs>
      <g transform="translate(144.306375 332.82025)scale(0.24 -0.24)">
       <use xlink:href="#DejaVuSans-2212"/>
       <use x="83.789062" xlink:href="#DejaVuSans-31"/>
       <use x="147.412109" xlink:href="#DejaVuSans-32"/>
      </g>
     </g>
    </g>
    <g id="xtick_3">
     <g id="line2d_3">
      <g>
       <use style="stroke:#000000;stroke-width:0.8;" x="236.16" xlink:href="#m4d282ccd0f" y="307.584"/>
      </g>
     </g>
     <g id="text_3">
      <!-- −10 -->
      <defs>
       <path d="M 31.78125 66.40625 
Q 24.171875 66.40625 20.328125 58.90625 
Q 16.5 51.421875 16.5 36.375 
Q 16.5 21.390625 20.328125 13.890625 
Q 24.171875 6.390625 31.78125 6.390625 
Q 39.453125 6.390625 43.28125 13.890625 
Q 47.125 21.390625 47.125 36.375 
Q 47.125 51.421875 43.28125 58.90625 
Q 39.453125 66.40625 31.78125 66.40625 
z
M 31.78125 74.21875 
Q 44.046875 74.21875 50.515625 64.515625 
Q 56.984375 54.828125 56.984375 36.375 
Q 56.984375 17.96875 50.515625 8.265625 
Q 44.046875 -1.421875 31.78125 -1.421875 
Q 19.53125 -1.421875 13.0625 8.265625 
Q 6.59375 17.96875 6.59375 36.375 
Q 6.59375 54.828125 13.0625 64.515625 
Q 19.53125 74.21875 31.78125 74.21875 
z
" id="DejaVuSans-30"/>
      </defs>
      <g transform="translate(210.834375 332.82025)scale(0.24 -0.24)">
       <use xlink:href="#DejaVuSans-2212"/>
       <use x="83.789062" xlink:href="#DejaVuSans-31"/>
       <use x="147.412109" xlink:href="#DejaVuSans-30"/>
      </g>
     </g>
    </g>
    <g id="xtick_4">
     <g id="line2d_4">
      <g>
       <use style="stroke:#000000;stroke-width:0.8;" x="302.688" xlink:href="#m4d282ccd0f" y="307.584"/>
      </g>
     </g>
     <g id="text_4">
      <!-- −8 -->
      <defs>
       <path d="M 31.78125 34.625 
Q 24.75 34.625 20.71875 30.859375 
Q 16.703125 27.09375 16.703125 20.515625 
Q 16.703125 13.921875 20.71875 10.15625 
Q 24.75 6.390625 31.78125 6.390625 
Q 38.8125 6.390625 42.859375 10.171875 
Q 46.921875 13.96875 46.921875 20.515625 
Q 46.921875 27.09375 42.890625 30.859375 
Q 38.875 34.625 31.78125 34.625 
z
M 21.921875 38.8125 
Q 15.578125 40.375 12.03125 44.71875 
Q 8.5 49.078125 8.5 55.328125 
Q 8.5 64.0625 14.71875 69.140625 
Q 20.953125 74.21875 31.78125 74.21875 
Q 42.671875 74.21875 48.875 69.140625 
Q 55.078125 64.0625 55.078125 55.328125 
Q 55.078125 49.078125 51.53125 44.71875 
Q 48 40.375 41.703125 38.8125 
Q 48.828125 37.15625 52.796875 32.3125 
Q 56.78125 27.484375 56.78125 20.515625 
Q 56.78125 9.90625 50.3125 4.234375 
Q 43.84375 -1.421875 31.78125 -1.421875 
Q 19.734375 -1.421875 13.25 4.234375 
Q 6.78125 9.90625 6.78125 20.515625 
Q 6.78125 27.484375 10.78125 32.3125 
Q 14.796875 37.15625 21.921875 38.8125 
z
M 18.3125 54.390625 
Q 18.3125 48.734375 21.84375 45.5625 
Q 25.390625 42.390625 31.78125 42.390625 
Q 38.140625 42.390625 41.71875 45.5625 
Q 45.3125 48.734375 45.3125 54.390625 
Q 45.3125 60.0625 41.71875 63.234375 
Q 38.140625 66.40625 31.78125 66.40625 
Q 25.390625 66.40625 21.84375 63.234375 
Q 18.3125 60.0625 18.3125 54.390625 
z
" id="DejaVuSans-38"/>
      </defs>
      <g transform="translate(284.997375 332.82025)scale(0.24 -0.24)">
       <use xlink:href="#DejaVuSans-2212"/>
       <use x="83.789062" xlink:href="#DejaVuSans-38"/>
      </g>
     </g>
    </g>
    <g id="xtick_5">
     <g id="line2d_5">
      <g>
       <use style="stroke:#000000;stroke-width:0.8;" x="369.216" xlink:href="#m4d282ccd0f" y="307.584"/>
      </g>
     </g>
     <g id="text_5">
      <!-- −6 -->
      <defs>
       <path d="M 33.015625 40.375 
Q 26.375 40.375 22.484375 35.828125 
Q 18.609375 31.296875 18.609375 23.390625 
Q 18.609375 15.53125 22.484375 10.953125 
Q 26.375 6.390625 33.015625 6.390625 
Q 39.65625 6.390625 43.53125 10.953125 
Q 47.40625 15.53125 47.40625 23.390625 
Q 47.40625 31.296875 43.53125 35.828125 
Q 39.65625 40.375 33.015625 40.375 
z
M 52.59375 71.296875 
L 52.59375 62.3125 
Q 48.875 64.0625 45.09375 64.984375 
Q 41.3125 65.921875 37.59375 65.921875 
Q 27.828125 65.921875 22.671875 59.328125 
Q 17.53125 52.734375 16.796875 39.40625 
Q 19.671875 43.65625 24.015625 45.921875 
Q 28.375 48.1875 33.59375 48.1875 
Q 44.578125 48.1875 50.953125 41.515625 
Q 57.328125 34.859375 57.328125 23.390625 
Q 57.328125 12.15625 50.6875 5.359375 
Q 44.046875 -1.421875 33.015625 -1.421875 
Q 20.359375 -1.421875 13.671875 8.265625 
Q 6.984375 17.96875 6.984375 36.375 
Q 6.984375 53.65625 15.1875 63.9375 
Q 23.390625 74.21875 37.203125 74.21875 
Q 40.921875 74.21875 44.703125 73.484375 
Q 48.484375 72.75 52.59375 71.296875 
z
" id="DejaVuSans-36"/>
      </defs>
      <g transform="translate(351.525375 332.82025)scale(0.24 -0.24)">
       <use xlink:href="#DejaVuSans-2212"/>
       <use x="83.789062" xlink:href="#DejaVuSans-36"/>
      </g>
     </g>
    </g>
    <g id="text_6">
     <!-- $\Delta$G$^{11ntR}_{bind}$ (kcal/mol) -->
     <defs>
      <path d="M 34.1875 63.1875 
L 14.15625 8.203125 
L 54.25 8.203125 
z
M 0.78125 0 
L 28.609375 72.90625 
L 39.796875 72.90625 
L 67.578125 0 
z
" id="DejaVuSans-394"/>
      <path d="M 59.515625 10.40625 
L 59.515625 29.984375 
L 43.40625 29.984375 
L 43.40625 38.09375 
L 69.28125 38.09375 
L 69.28125 6.78125 
Q 63.578125 2.734375 56.6875 0.65625 
Q 49.8125 -1.421875 42 -1.421875 
Q 24.90625 -1.421875 15.25 8.5625 
Q 5.609375 18.5625 5.609375 36.375 
Q 5.609375 54.25 15.25 64.234375 
Q 24.90625 74.21875 42 74.21875 
Q 49.125 74.21875 55.546875 72.453125 
Q 61.96875 70.703125 67.390625 67.28125 
L 67.390625 56.78125 
Q 61.921875 61.421875 55.765625 63.765625 
Q 49.609375 66.109375 42.828125 66.109375 
Q 29.4375 66.109375 22.71875 58.640625 
Q 16.015625 51.171875 16.015625 36.375 
Q 16.015625 21.625 22.71875 14.15625 
Q 29.4375 6.6875 42.828125 6.6875 
Q 48.046875 6.6875 52.140625 7.59375 
Q 56.25 8.5 59.515625 10.40625 
z
" id="DejaVuSans-47"/>
      <path d="M 55.71875 33.015625 
L 49.3125 0 
L 40.28125 0 
L 46.6875 32.671875 
Q 47.125 34.96875 47.359375 36.71875 
Q 47.609375 38.484375 47.609375 39.5 
Q 47.609375 43.609375 45.015625 45.890625 
Q 42.4375 48.1875 37.796875 48.1875 
Q 30.5625 48.1875 25.34375 43.375 
Q 20.125 38.578125 18.5 30.328125 
L 12.5 0 
L 3.515625 0 
L 14.109375 54.6875 
L 23.09375 54.6875 
L 21.296875 46.09375 
Q 25.046875 50.828125 30.3125 53.40625 
Q 35.59375 56 41.40625 56 
Q 48.640625 56 52.609375 52.09375 
Q 56.59375 48.1875 56.59375 41.109375 
Q 56.59375 39.359375 56.375 37.359375 
Q 56.15625 35.359375 55.71875 33.015625 
z
" id="DejaVuSans-Oblique-6e"/>
      <path d="M 42.28125 54.6875 
L 40.921875 47.703125 
L 23 47.703125 
L 17.1875 18.015625 
Q 16.890625 16.359375 16.75 15.234375 
Q 16.609375 14.109375 16.609375 13.484375 
Q 16.609375 10.359375 18.484375 8.9375 
Q 20.359375 7.515625 24.515625 7.515625 
L 33.59375 7.515625 
L 32.078125 0 
L 23.484375 0 
Q 15.484375 0 11.546875 3.125 
Q 7.625 6.25 7.625 12.59375 
Q 7.625 13.71875 7.765625 15.0625 
Q 7.90625 16.40625 8.203125 18.015625 
L 14.015625 47.703125 
L 6.390625 47.703125 
L 7.8125 54.6875 
L 15.28125 54.6875 
L 18.3125 70.21875 
L 27.296875 70.21875 
L 24.3125 54.6875 
z
" id="DejaVuSans-Oblique-74"/>
      <path d="M 25.203125 64.796875 
L 20.21875 38.921875 
L 32.90625 38.921875 
Q 40.375 38.921875 44.984375 43.046875 
Q 49.609375 47.171875 49.609375 53.8125 
Q 49.609375 59.125 46.5 61.953125 
Q 43.40625 64.796875 37.59375 64.796875 
z
M 43.3125 35.015625 
Q 46.4375 34.28125 48.515625 31.390625 
Q 50.59375 28.515625 53.328125 19.921875 
L 59.515625 0 
L 49.125 0 
L 43.40625 18.703125 
Q 41.21875 25.921875 38.328125 28.359375 
Q 35.453125 30.8125 29.5 30.8125 
L 18.609375 30.8125 
L 12.59375 0 
L 2.6875 0 
L 16.890625 72.90625 
L 39.109375 72.90625 
Q 49.21875 72.90625 54.609375 68.328125 
Q 60.015625 63.765625 60.015625 55.171875 
Q 60.015625 47.5625 55.421875 41.984375 
Q 50.828125 36.421875 43.3125 35.015625 
z
" id="DejaVuSans-Oblique-52"/>
      <path d="M 49.515625 33.40625 
Q 49.515625 40.484375 46.265625 44.484375 
Q 43.015625 48.484375 37.3125 48.484375 
Q 33.15625 48.484375 29.515625 46.453125 
Q 25.875 44.4375 23.1875 40.578125 
Q 20.359375 36.53125 18.71875 31.171875 
Q 17.09375 25.828125 17.09375 20.515625 
Q 17.09375 13.765625 20.28125 9.9375 
Q 23.484375 6.109375 29.109375 6.109375 
Q 33.34375 6.109375 36.953125 8.078125 
Q 40.578125 10.0625 43.3125 13.921875 
Q 46.09375 17.921875 47.796875 23.234375 
Q 49.515625 28.5625 49.515625 33.40625 
z
M 21.578125 46.390625 
Q 24.90625 50.875 29.90625 53.4375 
Q 34.90625 56 40.375 56 
Q 48.78125 56 53.734375 50.328125 
Q 58.6875 44.671875 58.6875 35.015625 
Q 58.6875 27.09375 55.78125 19.671875 
Q 52.875 12.25 47.515625 6.5 
Q 44 2.6875 39.40625 0.625 
Q 34.8125 -1.421875 29.78125 -1.421875 
Q 24.46875 -1.421875 20.5625 1.015625 
Q 16.65625 3.46875 14.203125 8.296875 
L 12.59375 0 
L 3.609375 0 
L 18.40625 75.984375 
L 27.390625 75.984375 
z
" id="DejaVuSans-Oblique-62"/>
      <path d="M 18.3125 75.984375 
L 27.296875 75.984375 
L 25.09375 64.59375 
L 16.109375 64.59375 
z
M 14.203125 54.6875 
L 23.1875 54.6875 
L 12.5 0 
L 3.515625 0 
z
" id="DejaVuSans-Oblique-69"/>
      <path d="M 41.796875 8.203125 
Q 38.1875 3.46875 33.25 1.015625 
Q 28.328125 -1.421875 22.3125 -1.421875 
Q 14.109375 -1.421875 9.34375 4.171875 
Q 4.59375 9.765625 4.59375 19.484375 
Q 4.59375 27.59375 7.46875 34.9375 
Q 10.359375 42.28125 15.828125 48.09375 
Q 19.4375 51.953125 23.96875 53.96875 
Q 28.515625 56 33.5 56 
Q 38.765625 56 42.796875 53.453125 
Q 46.828125 50.921875 49.03125 46.1875 
L 54.890625 75.984375 
L 63.921875 75.984375 
L 49.125 0 
L 40.09375 0 
z
M 13.921875 21.09375 
Q 13.921875 14.015625 17.109375 10.0625 
Q 20.3125 6.109375 25.984375 6.109375 
Q 30.171875 6.109375 33.765625 8.125 
Q 37.359375 10.15625 40.09375 14.109375 
Q 42.96875 18.21875 44.625 23.578125 
Q 46.296875 28.953125 46.296875 34.1875 
Q 46.296875 40.96875 43.09375 44.765625 
Q 39.890625 48.578125 34.28125 48.578125 
Q 30.03125 48.578125 26.359375 46.578125 
Q 22.703125 44.578125 20.125 40.828125 
Q 17.28125 36.765625 15.59375 31.390625 
Q 13.921875 26.03125 13.921875 21.09375 
z
" id="DejaVuSans-Oblique-64"/>
      <path id="DejaVuSans-20"/>
      <path d="M 31 75.875 
Q 24.46875 64.65625 21.28125 53.65625 
Q 18.109375 42.671875 18.109375 31.390625 
Q 18.109375 20.125 21.3125 9.0625 
Q 24.515625 -2 31 -13.1875 
L 23.1875 -13.1875 
Q 15.875 -1.703125 12.234375 9.375 
Q 8.59375 20.453125 8.59375 31.390625 
Q 8.59375 42.28125 12.203125 53.3125 
Q 15.828125 64.359375 23.1875 75.875 
z
" id="DejaVuSans-28"/>
      <path d="M 9.078125 75.984375 
L 18.109375 75.984375 
L 18.109375 31.109375 
L 44.921875 54.6875 
L 56.390625 54.6875 
L 27.390625 29.109375 
L 57.625 0 
L 45.90625 0 
L 18.109375 26.703125 
L 18.109375 0 
L 9.078125 0 
z
" id="DejaVuSans-6b"/>
      <path d="M 48.78125 52.59375 
L 48.78125 44.1875 
Q 44.96875 46.296875 41.140625 47.34375 
Q 37.3125 48.390625 33.40625 48.390625 
Q 24.65625 48.390625 19.8125 42.84375 
Q 14.984375 37.3125 14.984375 27.296875 
Q 14.984375 17.28125 19.8125 11.734375 
Q 24.65625 6.203125 33.40625 6.203125 
Q 37.3125 6.203125 41.140625 7.25 
Q 44.96875 8.296875 48.78125 10.40625 
L 48.78125 2.09375 
Q 45.015625 0.34375 40.984375 -0.53125 
Q 36.96875 -1.421875 32.421875 -1.421875 
Q 20.0625 -1.421875 12.78125 6.34375 
Q 5.515625 14.109375 5.515625 27.296875 
Q 5.515625 40.671875 12.859375 48.328125 
Q 20.21875 56 33.015625 56 
Q 37.15625 56 41.109375 55.140625 
Q 45.0625 54.296875 48.78125 52.59375 
z
" id="DejaVuSans-63"/>
      <path d="M 34.28125 27.484375 
Q 23.390625 27.484375 19.1875 25 
Q 14.984375 22.515625 14.984375 16.5 
Q 14.984375 11.71875 18.140625 8.90625 
Q 21.296875 6.109375 26.703125 6.109375 
Q 34.1875 6.109375 38.703125 11.40625 
Q 43.21875 16.703125 43.21875 25.484375 
L 43.21875 27.484375 
z
M 52.203125 31.203125 
L 52.203125 0 
L 43.21875 0 
L 43.21875 8.296875 
Q 40.140625 3.328125 35.546875 0.953125 
Q 30.953125 -1.421875 24.3125 -1.421875 
Q 15.921875 -1.421875 10.953125 3.296875 
Q 6 8.015625 6 15.921875 
Q 6 25.140625 12.171875 29.828125 
Q 18.359375 34.515625 30.609375 34.515625 
L 43.21875 34.515625 
L 43.21875 35.40625 
Q 43.21875 41.609375 39.140625 45 
Q 35.0625 48.390625 27.6875 48.390625 
Q 23 48.390625 18.546875 47.265625 
Q 14.109375 46.140625 10.015625 43.890625 
L 10.015625 52.203125 
Q 14.9375 54.109375 19.578125 55.046875 
Q 24.21875 56 28.609375 56 
Q 40.484375 56 46.34375 49.84375 
Q 52.203125 43.703125 52.203125 31.203125 
z
" id="DejaVuSans-61"/>
      <path d="M 9.421875 75.984375 
L 18.40625 75.984375 
L 18.40625 0 
L 9.421875 0 
z
" id="DejaVuSans-6c"/>
      <path d="M 25.390625 72.90625 
L 33.6875 72.90625 
L 8.296875 -9.28125 
L 0 -9.28125 
z
" id="DejaVuSans-2f"/>
      <path d="M 52 44.1875 
Q 55.375 50.25 60.0625 53.125 
Q 64.75 56 71.09375 56 
Q 79.640625 56 84.28125 50.015625 
Q 88.921875 44.046875 88.921875 33.015625 
L 88.921875 0 
L 79.890625 0 
L 79.890625 32.71875 
Q 79.890625 40.578125 77.09375 44.375 
Q 74.3125 48.1875 68.609375 48.1875 
Q 61.625 48.1875 57.5625 43.546875 
Q 53.515625 38.921875 53.515625 30.90625 
L 53.515625 0 
L 44.484375 0 
L 44.484375 32.71875 
Q 44.484375 40.625 41.703125 44.40625 
Q 38.921875 48.1875 33.109375 48.1875 
Q 26.21875 48.1875 22.15625 43.53125 
Q 18.109375 38.875 18.109375 30.90625 
L 18.109375 0 
L 9.078125 0 
L 9.078125 54.6875 
L 18.109375 54.6875 
L 18.109375 46.1875 
Q 21.1875 51.21875 25.484375 53.609375 
Q 29.78125 56 35.6875 56 
Q 41.65625 56 45.828125 52.96875 
Q 50 49.953125 52 44.1875 
z
" id="DejaVuSans-6d"/>
      <path d="M 30.609375 48.390625 
Q 23.390625 48.390625 19.1875 42.75 
Q 14.984375 37.109375 14.984375 27.296875 
Q 14.984375 17.484375 19.15625 11.84375 
Q 23.34375 6.203125 30.609375 6.203125 
Q 37.796875 6.203125 41.984375 11.859375 
Q 46.1875 17.53125 46.1875 27.296875 
Q 46.1875 37.015625 41.984375 42.703125 
Q 37.796875 48.390625 30.609375 48.390625 
z
M 30.609375 56 
Q 42.328125 56 49.015625 48.375 
Q 55.71875 40.765625 55.71875 27.296875 
Q 55.71875 13.875 49.015625 6.21875 
Q 42.328125 -1.421875 30.609375 -1.421875 
Q 18.84375 -1.421875 12.171875 6.21875 
Q 5.515625 13.875 5.515625 27.296875 
Q 5.515625 40.765625 12.171875 48.375 
Q 18.84375 56 30.609375 56 
z
" id="DejaVuSans-6f"/>
      <path d="M 8.015625 75.875 
L 15.828125 75.875 
Q 23.140625 64.359375 26.78125 53.3125 
Q 30.421875 42.28125 30.421875 31.390625 
Q 30.421875 20.453125 26.78125 9.375 
Q 23.140625 -1.703125 15.828125 -13.1875 
L 8.015625 -13.1875 
Q 14.5 -2 17.703125 9.0625 
Q 20.90625 20.125 20.90625 31.390625 
Q 20.90625 42.671875 17.703125 53.65625 
Q 14.5 64.65625 8.015625 75.875 
z
" id="DejaVuSans-29"/>
     </defs>
     <g transform="translate(138.15 361.6115)scale(0.22 -0.22)">
      <use transform="translate(0 0.620313)" xlink:href="#DejaVuSans-394"/>
      <use transform="translate(68.408203 0.620313)" xlink:href="#DejaVuSans-47"/>
      <use transform="translate(146.855469 38.965625)scale(0.7)" xlink:href="#DejaVuSans-31"/>
      <use transform="translate(191.391602 38.965625)scale(0.7)" xlink:href="#DejaVuSans-31"/>
      <use transform="translate(235.927734 38.965625)scale(0.7)" xlink:href="#DejaVuSans-Oblique-6e"/>
      <use transform="translate(280.292969 38.965625)scale(0.7)" xlink:href="#DejaVuSans-Oblique-74"/>
      <use transform="translate(307.739258 38.965625)scale(0.7)" xlink:href="#DejaVuSans-Oblique-52"/>
      <use transform="translate(146.855469 -26.723437)scale(0.7)" xlink:href="#DejaVuSans-Oblique-62"/>
      <use transform="translate(191.289062 -26.723437)scale(0.7)" xlink:href="#DejaVuSans-Oblique-69"/>
      <use transform="translate(210.737305 -26.723437)scale(0.7)" xlink:href="#DejaVuSans-Oblique-6e"/>
      <use transform="translate(255.102539 -26.723437)scale(0.7)" xlink:href="#DejaVuSans-Oblique-64"/>
      <use transform="translate(359.111328 0.620313)" xlink:href="#DejaVuSans-20"/>
      <use transform="translate(390.898438 0.620313)" xlink:href="#DejaVuSans-28"/>
      <use transform="translate(429.912109 0.620313)" xlink:href="#DejaVuSans-6b"/>
      <use transform="translate(487.822266 0.620313)" xlink:href="#DejaVuSans-63"/>
      <use transform="translate(542.802734 0.620313)" xlink:href="#DejaVuSans-61"/>
      <use transform="translate(604.082031 0.620313)" xlink:href="#DejaVuSans-6c"/>
      <use transform="translate(631.865234 0.620313)" xlink:href="#DejaVuSans-2f"/>
      <use transform="translate(665.556641 0.620313)" xlink:href="#DejaVuSans-6d"/>
      <use transform="translate(762.96875 0.620313)" xlink:href="#DejaVuSans-6f"/>
      <use transform="translate(824.150391 0.620313)" xlink:href="#DejaVuSans-6c"/>
      <use transform="translate(851.933594 0.620313)" xlink:href="#DejaVuSans-29"/>
     </g>
    </g>
   </g>
   <g id="matplotlib.axis_2">
    <g id="ytick_1">
     <g id="line2d_6">
      <defs>
       <path d="M 0 0 
L -3.5 0 
" id="m4901771d20" style="stroke:#000000;stroke-width:0.8;"/>
      </defs>
      <g>
       <use style="stroke:#000000;stroke-width:0.8;" x="103.104" xlink:href="#m4901771d20" y="307.584"/>
      </g>
     </g>
     <g id="text_7">
      <!-- −14 -->
      <g transform="translate(45.45275 316.702125)scale(0.24 -0.24)">
       <use xlink:href="#DejaVuSans-2212"/>
       <use x="83.789062" xlink:href="#DejaVuSans-31"/>
       <use x="147.412109" xlink:href="#DejaVuSans-34"/>
      </g>
     </g>
    </g>
    <g id="ytick_2">
     <g id="line2d_7">
      <g>
       <use style="stroke:#000000;stroke-width:0.8;" x="103.104" xlink:href="#m4901771d20" y="241.056"/>
      </g>
     </g>
     <g id="text_8">
      <!-- −12 -->
      <g transform="translate(45.45275 250.174125)scale(0.24 -0.24)">
       <use xlink:href="#DejaVuSans-2212"/>
       <use x="83.789062" xlink:href="#DejaVuSans-31"/>
       <use x="147.412109" xlink:href="#DejaVuSans-32"/>
      </g>
     </g>
    </g>
    <g id="ytick_3">
     <g id="line2d_8">
      <g>
       <use style="stroke:#000000;stroke-width:0.8;" x="103.104" xlink:href="#m4901771d20" y="174.528"/>
      </g>
     </g>
     <g id="text_9">
      <!-- −10 -->
      <g transform="translate(45.45275 183.646125)scale(0.24 -0.24)">
       <use xlink:href="#DejaVuSans-2212"/>
       <use x="83.789062" xlink:href="#DejaVuSans-31"/>
       <use x="147.412109" xlink:href="#DejaVuSans-30"/>
      </g>
     </g>
    </g>
    <g id="ytick_4">
     <g id="line2d_9">
      <g>
       <use style="stroke:#000000;stroke-width:0.8;" x="103.104" xlink:href="#m4901771d20" y="108"/>
      </g>
     </g>
     <g id="text_10">
      <!-- −8 -->
      <g transform="translate(60.72275 117.118125)scale(0.24 -0.24)">
       <use xlink:href="#DejaVuSans-2212"/>
       <use x="83.789062" xlink:href="#DejaVuSans-38"/>
      </g>
     </g>
    </g>
    <g id="ytick_5">
     <g id="line2d_10">
      <g>
       <use style="stroke:#000000;stroke-width:0.8;" x="103.104" xlink:href="#m4901771d20" y="41.472"/>
      </g>
     </g>
     <g id="text_11">
      <!-- −6 -->
      <g transform="translate(60.72275 50.590125)scale(0.24 -0.24)">
       <use xlink:href="#DejaVuSans-2212"/>
       <use x="83.789062" xlink:href="#DejaVuSans-36"/>
      </g>
     </g>
    </g>
    <g id="text_12">
     <!-- $\Delta$G$^{mut}_{bind}$ (kcal/mol) -->
     <defs>
      <path d="M 89.796875 33.015625 
L 83.40625 0 
L 74.421875 0 
L 80.71875 32.71875 
Q 81.109375 34.8125 81.296875 36.328125 
Q 81.5 37.84375 81.5 38.921875 
Q 81.5 43.3125 79.046875 45.75 
Q 76.609375 48.1875 72.21875 48.1875 
Q 65.671875 48.1875 60.546875 43.28125 
Q 55.421875 38.375 53.90625 30.515625 
L 47.90625 0 
L 38.921875 0 
L 45.3125 32.71875 
Q 45.703125 34.515625 45.890625 36.046875 
Q 46.09375 37.59375 46.09375 38.8125 
Q 46.09375 43.265625 43.65625 45.71875 
Q 41.21875 48.1875 36.921875 48.1875 
Q 30.28125 48.1875 25.140625 43.28125 
Q 20.015625 38.375 18.5 30.515625 
L 12.5 0 
L 3.515625 0 
L 14.203125 54.6875 
L 23.1875 54.6875 
L 21.484375 46.1875 
Q 25.140625 50.984375 30.046875 53.484375 
Q 34.96875 56 40.578125 56 
Q 46.53125 56 50.359375 52.875 
Q 54.203125 49.75 54.984375 44.1875 
Q 59.078125 49.953125 64.46875 52.96875 
Q 69.875 56 75.875 56 
Q 82.90625 56 86.734375 51.953125 
Q 90.578125 47.90625 90.578125 40.484375 
Q 90.578125 38.875 90.375 36.9375 
Q 90.1875 35.015625 89.796875 33.015625 
z
" id="DejaVuSans-Oblique-6d"/>
      <path d="M 6.6875 21.6875 
L 13.09375 54.6875 
L 22.125 54.6875 
L 15.71875 22.015625 
Q 15.234375 19.625 15.015625 17.921875 
Q 14.796875 16.21875 14.796875 15.09375 
Q 14.796875 10.9375 17.328125 8.65625 
Q 19.875 6.390625 24.515625 6.390625 
Q 31.734375 6.390625 37 11.265625 
Q 42.28125 16.15625 43.890625 24.421875 
L 49.90625 54.6875 
L 58.890625 54.6875 
L 48.296875 0 
L 39.3125 0 
L 41.109375 8.59375 
Q 37.3125 3.8125 32.0625 1.1875 
Q 26.8125 -1.421875 20.90625 -1.421875 
Q 13.71875 -1.421875 9.71875 2.515625 
Q 5.71875 6.453125 5.71875 13.484375 
Q 5.71875 14.9375 5.953125 17.140625 
Q 6.203125 19.34375 6.6875 21.6875 
z
" id="DejaVuSans-Oblique-75"/>
     </defs>
     <g transform="translate(35.07275 266.378)rotate(-90)scale(0.22 -0.22)">
      <use transform="translate(0 0.50625)" xlink:href="#DejaVuSans-394"/>
      <use transform="translate(68.408203 0.50625)" xlink:href="#DejaVuSans-47"/>
      <use transform="translate(146.855469 39.846875)scale(0.7)" xlink:href="#DejaVuSans-Oblique-6d"/>
      <use transform="translate(215.043945 39.846875)scale(0.7)" xlink:href="#DejaVuSans-Oblique-75"/>
      <use transform="translate(259.40918 39.846875)scale(0.7)" xlink:href="#DejaVuSans-Oblique-74"/>
      <use transform="translate(146.855469 -26.8375)scale(0.7)" xlink:href="#DejaVuSans-Oblique-62"/>
      <use transform="translate(191.289062 -26.8375)scale(0.7)" xlink:href="#DejaVuSans-Oblique-69"/>
      <use transform="translate(210.737305 -26.8375)scale(0.7)" xlink:href="#DejaVuSans-Oblique-6e"/>
      <use transform="translate(255.102539 -26.8375)scale(0.7)" xlink:href="#DejaVuSans-Oblique-64"/>
      <use transform="translate(302.270508 0.50625)" xlink:href="#DejaVuSans-20"/>
      <use transform="translate(334.057617 0.50625)" xlink:href="#DejaVuSans-28"/>
      <use transform="translate(373.071289 0.50625)" xlink:href="#DejaVuSans-6b"/>
      <use transform="translate(430.981445 0.50625)" xlink:href="#DejaVuSans-63"/>
      <use transform="translate(485.961914 0.50625)" xlink:href="#DejaVuSans-61"/>
      <use transform="translate(547.241211 0.50625)" xlink:href="#DejaVuSans-6c"/>
      <use transform="translate(575.024414 0.50625)" xlink:href="#DejaVuSans-2f"/>
      <use transform="translate(608.71582 0.50625)" xlink:href="#DejaVuSans-6d"/>
      <use transform="translate(706.12793 0.50625)" xlink:href="#DejaVuSans-6f"/>
      <use transform="translate(767.30957 0.50625)" xlink:href="#DejaVuSans-6c"/>
      <use transform="translate(795.092773 0.50625)" xlink:href="#DejaVuSans-29"/>
     </g>
    </g>
   </g>
   <g id="line2d_11">
    <path clip-path="url(#p56dec37c42)" d="M 103.104 205.155399 
L 309.259399 -1 
" style="fill:none;stroke:#ff0000;stroke-dasharray:11.1,4.8;stroke-dashoffset:0;stroke-width:3;"/>
   </g>
   <g id="line2d_12">
    <path clip-path="url(#p56dec37c42)" d="M 103.104 307.584 
L 332.6256 78.0624 
" style="fill:none;stroke:#000000;stroke-dasharray:1.5,2.475;stroke-dashoffset:0;stroke-width:1.5;"/>
   </g>
   <g id="line2d_13">
    <path clip-path="url(#p56dec37c42)" d="M 103.104 78.0624 
L 332.6256 78.0624 
" style="fill:none;stroke:#000000;stroke-dasharray:0.5,0.825;stroke-dashoffset:0;stroke-width:0.5;"/>
   </g>
   <g id="line2d_14">
    <path clip-path="url(#p56dec37c42)" d="M 332.6256 307.584 
L 332.6256 78.0624 
" style="fill:none;stroke:#000000;stroke-dasharray:0.5,0.825;stroke-dashoffset:0;stroke-width:0.5;"/>
   </g>
   <g id="patch_3">
    <path d="M 103.104 307.584 
L 103.104 41.472 
" style="fill:none;stroke:#000000;stroke-linecap:square;stroke-linejoin:miter;stroke-width:0.8;"/>
   </g>
   <g id="patch_4">
    <path d="M 369.216 307.584 
L 369.216 41.472 
" style="fill:none;stroke:#000000;stroke-linecap:square;stroke-linejoin:miter;stroke-width:0.8;"/>
   </g>
   <g id="patch_5">
    <path d="M 103.104 307.584 
L 369.216 307.584 
" style="fill:none;stroke:#000000;stroke-linecap:square;stroke-linejoin:miter;stroke-width:0.8;"/>
   </g>
   <g id="patch_6">
    <path d="M 103.104 41.472 
L 369.216 41.472 
" style="fill:none;stroke:#000000;stroke-linecap:square;stroke-linejoin:miter;stroke-width:0.8;"/>
   </g>
  </g>
 </g>
 <defs>
  <clipPath id="p56dec37c42">
   <rect height="266.112" width="266.112" x="103.104" y="41.472"/>
  </clipPath>
 </defs>
</svg>
