<?xml version="1.0" encoding="utf-8" standalone="no"?>
<!DOCTYPE svg PUBLIC "-//W3C//DTD SVG 1.1//EN"
  "http://www.w3.org/Graphics/SVG/1.1/DTD/svg11.dtd">
<!-- Created with matplotlib (http://matplotlib.org/) -->
<svg height="345pt" version="1.1" viewBox="0 0 460 345" width="460pt" xmlns="http://www.w3.org/2000/svg" xmlns:xlink="http://www.w3.org/1999/xlink">
 <defs>
  <style type="text/css">
*{stroke-linecap:butt;stroke-linejoin:round;}
  </style>
 </defs>
 <g id="figure_1">
  <g id="patch_1">
   <path d="M 0 345.6 
L 460.8 345.6 
L 460.8 0 
L 0 0 
z
" style="fill:#ffffff;"/>
  </g>
  <g id="axes_1">
   <g id="patch_2">
    <path d="M 57.6 307.584 
L 414.72 307.584 
L 414.72 41.472 
L 57.6 41.472 
z
" style="fill:#ffffff;"/>
   </g>
   <g id="patch_3">
    <path clip-path="url(#pcc4918cffd)" d="M 73.832727 241.056 
L 81.516859 241.056 
L 81.516859 99.228303 
L 73.832727 99.228303 
z
" style="fill:#1f77b4;"/>
   </g>
   <g id="patch_4">
    <path clip-path="url(#pcc4918cffd)" d="M 83.437891 241.056 
L 91.122023 241.056 
L 91.122023 98.644887 
L 83.437891 98.644887 
z
" style="fill:#1f77b4;"/>
   </g>
   <g id="patch_5">
    <path clip-path="url(#pcc4918cffd)" d="M 93.043055 241.056 
L 100.727187 241.056 
L 100.727187 218.502484 
L 93.043055 218.502484 
z
" style="fill:#1f77b4;"/>
   </g>
   <g id="patch_6">
    <path clip-path="url(#pcc4918cffd)" d="M 102.648219 241.056 
L 110.332351 241.056 
L 110.332351 23.223629 
L 102.648219 23.223629 
z
" style="fill:#1f77b4;"/>
   </g>
   <g id="patch_7">
    <path clip-path="url(#pcc4918cffd)" d="M 112.253384 241.056 
L 119.937515 241.056 
L 119.937515 -1.797403 
L 112.253384 -1.797403 
z
" style="fill:#1f77b4;"/>
   </g>
   <g id="patch_8">
    <path clip-path="url(#pcc4918cffd)" d="M 121.858548 241.056 
L 129.542679 241.056 
L 129.542679 -31.507335 
L 121.858548 -31.507335 
z
" style="fill:#1f77b4;"/>
   </g>
   <g id="patch_9">
    <path clip-path="url(#pcc4918cffd)" d="M 131.463712 241.056 
L 139.147843 241.056 
L 139.147843 138.987714 
L 131.463712 138.987714 
z
" style="fill:#1f77b4;"/>
   </g>
   <g id="patch_10">
    <path clip-path="url(#pcc4918cffd)" d="M 141.068876 241.056 
L 148.753007 241.056 
L 148.753007 180.702393 
L 141.068876 180.702393 
z
" style="fill:#1f77b4;"/>
   </g>
   <g id="patch_11">
    <path clip-path="url(#pcc4918cffd)" d="M 150.67404 241.056 
L 158.358171 241.056 
L 158.358171 117.838447 
L 150.67404 117.838447 
z
" style="fill:#1f77b4;"/>
   </g>
   <g id="patch_12">
    <path clip-path="url(#pcc4918cffd)" d="M 160.279204 241.056 
L 167.963335 241.056 
L 167.963335 -88.42276 
L 160.279204 -88.42276 
z
" style="fill:#1f77b4;"/>
   </g>
   <g id="patch_13">
    <path clip-path="url(#pcc4918cffd)" d="M 169.884368 241.056 
L 177.568499 241.056 
L 177.568499 -80.155977 
L 169.884368 -80.155977 
z
" style="fill:#1f77b4;"/>
   </g>
   <g id="patch_14">
    <path clip-path="url(#pcc4918cffd)" d="M 179.489532 241.056 
L 187.173663 241.056 
L 187.173663 -74.685677 
L 179.489532 -74.685677 
z
" style="fill:#1f77b4;"/>
   </g>
   <g id="patch_15">
    <path clip-path="url(#pcc4918cffd)" d="M 189.094696 241.056 
L 196.778827 241.056 
L 196.778827 138.435464 
L 189.094696 138.435464 
z
" style="fill:#1f77b4;"/>
   </g>
   <g id="patch_16">
    <path clip-path="url(#pcc4918cffd)" d="M 198.69986 241.056 
L 206.383991 241.056 
L 206.383991 79.85738 
L 198.69986 79.85738 
z
" style="fill:#1f77b4;"/>
   </g>
   <g id="patch_17">
    <path clip-path="url(#pcc4918cffd)" d="M 208.305024 241.056 
L 215.989155 241.056 
L 215.989155 62.694346 
L 208.305024 62.694346 
z
" style="fill:#1f77b4;"/>
   </g>
   <g id="patch_18">
    <path clip-path="url(#pcc4918cffd)" d="M 217.910188 241.056 
L 225.59432 241.056 
L 225.59432 95.663726 
L 217.910188 95.663726 
z
" style="fill:#1f77b4;"/>
   </g>
   <g id="patch_19">
    <path clip-path="url(#pcc4918cffd)" d="M 227.515352 241.056 
L 235.199484 241.056 
L 235.199484 186.631783 
L 227.515352 186.631783 
z
" style="fill:#1f77b4;"/>
   </g>
   <g id="patch_20">
    <path clip-path="url(#pcc4918cffd)" d="M 237.120516 241.056 
L 244.804648 241.056 
L 244.804648 174.365244 
L 237.120516 174.365244 
z
" style="fill:#1f77b4;"/>
   </g>
   <g id="patch_21">
    <path clip-path="url(#pcc4918cffd)" d="M 246.72568 241.056 
L 254.409812 241.056 
L 254.409812 29.786367 
L 246.72568 29.786367 
z
" style="fill:#1f77b4;"/>
   </g>
   <g id="patch_22">
    <path clip-path="url(#pcc4918cffd)" d="M 256.330845 241.056 
L 264.014976 241.056 
L 264.014976 -29.337844 
L 256.330845 -29.337844 
z
" style="fill:#1f77b4;"/>
   </g>
   <g id="patch_23">
    <path clip-path="url(#pcc4918cffd)" d="M 265.936009 241.056 
L 273.62014 241.056 
L 273.62014 58.118439 
L 265.936009 58.118439 
z
" style="fill:#1f77b4;"/>
   </g>
   <g id="patch_24">
    <path clip-path="url(#pcc4918cffd)" d="M 275.541173 241.056 
L 283.225304 241.056 
L 283.225304 17.71475 
L 275.541173 17.71475 
z
" style="fill:#1f77b4;"/>
   </g>
   <g id="patch_25">
    <path clip-path="url(#pcc4918cffd)" d="M 285.146337 241.056 
L 292.830468 241.056 
L 292.830468 -45.155391 
L 285.146337 -45.155391 
z
" style="fill:#1f77b4;"/>
   </g>
   <g id="patch_26">
    <path clip-path="url(#pcc4918cffd)" d="M 294.751501 241.056 
L 302.435632 241.056 
L 302.435632 -21.746246 
L 294.751501 -21.746246 
z
" style="fill:#1f77b4;"/>
   </g>
   <g id="patch_27">
    <path clip-path="url(#pcc4918cffd)" d="M 304.356665 241.056 
L 312.040796 241.056 
L 312.040796 74.748304 
L 304.356665 74.748304 
z
" style="fill:#1f77b4;"/>
   </g>
   <g id="patch_28">
    <path clip-path="url(#pcc4918cffd)" d="M 313.961829 241.056 
L 321.64596 241.056 
L 321.64596 115.895551 
L 313.961829 115.895551 
z
" style="fill:#1f77b4;"/>
   </g>
   <g id="patch_29">
    <path clip-path="url(#pcc4918cffd)" d="M 323.566993 241.056 
L 331.251124 241.056 
L 331.251124 94.740919 
L 323.566993 94.740919 
z
" style="fill:#1f77b4;"/>
   </g>
   <g id="patch_30">
    <path clip-path="url(#pcc4918cffd)" d="M 333.172157 241.056 
L 340.856288 241.056 
L 340.856288 233.545089 
L 333.172157 233.545089 
z
" style="fill:#1f77b4;"/>
   </g>
   <g id="patch_31">
    <path clip-path="url(#pcc4918cffd)" d="M 342.777321 241.056 
L 350.461452 241.056 
L 350.461452 58.244646 
L 342.777321 58.244646 
z
" style="fill:#1f77b4;"/>
   </g>
   <g id="patch_32">
    <path clip-path="url(#pcc4918cffd)" d="M 352.382485 241.056 
L 360.066616 241.056 
L 360.066616 70.349364 
L 352.382485 70.349364 
z
" style="fill:#1f77b4;"/>
   </g>
   <g id="patch_33">
    <path clip-path="url(#pcc4918cffd)" d="M 361.987649 241.056 
L 369.671781 241.056 
L 369.671781 215.884089 
L 361.987649 215.884089 
z
" style="fill:#1f77b4;"/>
   </g>
   <g id="patch_34">
    <path clip-path="url(#pcc4918cffd)" d="M 371.592813 241.056 
L 379.276945 241.056 
L 379.276945 219.454607 
L 371.592813 219.454607 
z
" style="fill:#1f77b4;"/>
   </g>
   <g id="patch_35">
    <path clip-path="url(#pcc4918cffd)" d="M 381.197977 241.056 
L 388.882109 241.056 
L 388.882109 163.113055 
L 381.197977 163.113055 
z
" style="fill:#1f77b4;"/>
   </g>
   <g id="patch_36">
    <path clip-path="url(#pcc4918cffd)" d="M 390.803141 241.056 
L 398.487273 241.056 
L 398.487273 241.056 
L 390.803141 241.056 
z
" style="fill:#1f77b4;"/>
   </g>
   <g id="matplotlib.axis_1">
    <g id="xtick_1">
     <g id="line2d_1">
      <defs>
       <path d="M 0 0 
L 0 3.5 
" id="mef0925b511" style="stroke:#000000;stroke-width:0.8;"/>
      </defs>
      <g>
       <use style="stroke:#000000;stroke-width:0.8;" x="77.674793" xlink:href="#mef0925b511" y="307.584"/>
      </g>
     </g>
     <g id="text_1">
      <!-- 0 -->
      <defs>
       <path d="M 31.78125 66.40625 
Q 24.171875 66.40625 20.328125 58.90625 
Q 16.5 51.421875 16.5 36.375 
Q 16.5 21.390625 20.328125 13.890625 
Q 24.171875 6.390625 31.78125 6.390625 
Q 39.453125 6.390625 43.28125 13.890625 
Q 47.125 21.390625 47.125 36.375 
Q 47.125 51.421875 43.28125 58.90625 
Q 39.453125 66.40625 31.78125 66.40625 
z
M 31.78125 74.21875 
Q 44.046875 74.21875 50.515625 64.515625 
Q 56.984375 54.828125 56.984375 36.375 
Q 56.984375 17.96875 50.515625 8.265625 
Q 44.046875 -1.421875 31.78125 -1.421875 
Q 19.53125 -1.421875 13.0625 8.265625 
Q 6.59375 17.96875 6.59375 36.375 
Q 6.59375 54.828125 13.0625 64.515625 
Q 19.53125 74.21875 31.78125 74.21875 
z
" id="DejaVuSans-30"/>
      </defs>
      <g transform="translate(74.493543 322.182437)scale(0.1 -0.1)">
       <use xlink:href="#DejaVuSans-30"/>
      </g>
     </g>
    </g>
    <g id="xtick_2">
     <g id="line2d_2">
      <g>
       <use style="stroke:#000000;stroke-width:0.8;" x="125.700613" xlink:href="#mef0925b511" y="307.584"/>
      </g>
     </g>
     <g id="text_2">
      <!-- 5 -->
      <defs>
       <path d="M 10.796875 72.90625 
L 49.515625 72.90625 
L 49.515625 64.59375 
L 19.828125 64.59375 
L 19.828125 46.734375 
Q 21.96875 47.46875 24.109375 47.828125 
Q 26.265625 48.1875 28.421875 48.1875 
Q 40.625 48.1875 47.75 41.5 
Q 54.890625 34.8125 54.890625 23.390625 
Q 54.890625 11.625 47.5625 5.09375 
Q 40.234375 -1.421875 26.90625 -1.421875 
Q 22.3125 -1.421875 17.546875 -0.640625 
Q 12.796875 0.140625 7.71875 1.703125 
L 7.71875 11.625 
Q 12.109375 9.234375 16.796875 8.0625 
Q 21.484375 6.890625 26.703125 6.890625 
Q 35.15625 6.890625 40.078125 11.328125 
Q 45.015625 15.765625 45.015625 23.390625 
Q 45.015625 31 40.078125 35.4375 
Q 35.15625 39.890625 26.703125 39.890625 
Q 22.75 39.890625 18.8125 39.015625 
Q 14.890625 38.140625 10.796875 36.28125 
z
" id="DejaVuSans-35"/>
      </defs>
      <g transform="translate(122.519363 322.182437)scale(0.1 -0.1)">
       <use xlink:href="#DejaVuSans-35"/>
      </g>
     </g>
    </g>
    <g id="xtick_3">
     <g id="line2d_3">
      <g>
       <use style="stroke:#000000;stroke-width:0.8;" x="173.726434" xlink:href="#mef0925b511" y="307.584"/>
      </g>
     </g>
     <g id="text_3">
      <!-- 10 -->
      <defs>
       <path d="M 12.40625 8.296875 
L 28.515625 8.296875 
L 28.515625 63.921875 
L 10.984375 60.40625 
L 10.984375 69.390625 
L 28.421875 72.90625 
L 38.28125 72.90625 
L 38.28125 8.296875 
L 54.390625 8.296875 
L 54.390625 0 
L 12.40625 0 
z
" id="DejaVuSans-31"/>
      </defs>
      <g transform="translate(167.363934 322.182437)scale(0.1 -0.1)">
       <use xlink:href="#DejaVuSans-31"/>
       <use x="63.623047" xlink:href="#DejaVuSans-30"/>
      </g>
     </g>
    </g>
    <g id="xtick_4">
     <g id="line2d_4">
      <g>
       <use style="stroke:#000000;stroke-width:0.8;" x="221.752254" xlink:href="#mef0925b511" y="307.584"/>
      </g>
     </g>
     <g id="text_4">
      <!-- 15 -->
      <g transform="translate(215.389754 322.182437)scale(0.1 -0.1)">
       <use xlink:href="#DejaVuSans-31"/>
       <use x="63.623047" xlink:href="#DejaVuSans-35"/>
      </g>
     </g>
    </g>
    <g id="xtick_5">
     <g id="line2d_5">
      <g>
       <use style="stroke:#000000;stroke-width:0.8;" x="269.778074" xlink:href="#mef0925b511" y="307.584"/>
      </g>
     </g>
     <g id="text_5">
      <!-- 20 -->
      <defs>
       <path d="M 19.1875 8.296875 
L 53.609375 8.296875 
L 53.609375 0 
L 7.328125 0 
L 7.328125 8.296875 
Q 12.9375 14.109375 22.625 23.890625 
Q 32.328125 33.6875 34.8125 36.53125 
Q 39.546875 41.84375 41.421875 45.53125 
Q 43.3125 49.21875 43.3125 52.78125 
Q 43.3125 58.59375 39.234375 62.25 
Q 35.15625 65.921875 28.609375 65.921875 
Q 23.96875 65.921875 18.8125 64.3125 
Q 13.671875 62.703125 7.8125 59.421875 
L 7.8125 69.390625 
Q 13.765625 71.78125 18.9375 73 
Q 24.125 74.21875 28.421875 74.21875 
Q 39.75 74.21875 46.484375 68.546875 
Q 53.21875 62.890625 53.21875 53.421875 
Q 53.21875 48.921875 51.53125 44.890625 
Q 49.859375 40.875 45.40625 35.40625 
Q 44.1875 33.984375 37.640625 27.21875 
Q 31.109375 20.453125 19.1875 8.296875 
z
" id="DejaVuSans-32"/>
      </defs>
      <g transform="translate(263.415574 322.182437)scale(0.1 -0.1)">
       <use xlink:href="#DejaVuSans-32"/>
       <use x="63.623047" xlink:href="#DejaVuSans-30"/>
      </g>
     </g>
    </g>
    <g id="xtick_6">
     <g id="line2d_6">
      <g>
       <use style="stroke:#000000;stroke-width:0.8;" x="317.803895" xlink:href="#mef0925b511" y="307.584"/>
      </g>
     </g>
     <g id="text_6">
      <!-- 25 -->
      <g transform="translate(311.441395 322.182437)scale(0.1 -0.1)">
       <use xlink:href="#DejaVuSans-32"/>
       <use x="63.623047" xlink:href="#DejaVuSans-35"/>
      </g>
     </g>
    </g>
    <g id="xtick_7">
     <g id="line2d_7">
      <g>
       <use style="stroke:#000000;stroke-width:0.8;" x="365.829715" xlink:href="#mef0925b511" y="307.584"/>
      </g>
     </g>
     <g id="text_7">
      <!-- 30 -->
      <defs>
       <path d="M 40.578125 39.3125 
Q 47.65625 37.796875 51.625 33 
Q 55.609375 28.21875 55.609375 21.1875 
Q 55.609375 10.40625 48.1875 4.484375 
Q 40.765625 -1.421875 27.09375 -1.421875 
Q 22.515625 -1.421875 17.65625 -0.515625 
Q 12.796875 0.390625 7.625 2.203125 
L 7.625 11.71875 
Q 11.71875 9.328125 16.59375 8.109375 
Q 21.484375 6.890625 26.8125 6.890625 
Q 36.078125 6.890625 40.9375 10.546875 
Q 45.796875 14.203125 45.796875 21.1875 
Q 45.796875 27.640625 41.28125 31.265625 
Q 36.765625 34.90625 28.71875 34.90625 
L 20.21875 34.90625 
L 20.21875 43.015625 
L 29.109375 43.015625 
Q 36.375 43.015625 40.234375 45.921875 
Q 44.09375 48.828125 44.09375 54.296875 
Q 44.09375 59.90625 40.109375 62.90625 
Q 36.140625 65.921875 28.71875 65.921875 
Q 24.65625 65.921875 20.015625 65.03125 
Q 15.375 64.15625 9.8125 62.3125 
L 9.8125 71.09375 
Q 15.4375 72.65625 20.34375 73.4375 
Q 25.25 74.21875 29.59375 74.21875 
Q 40.828125 74.21875 47.359375 69.109375 
Q 53.90625 64.015625 53.90625 55.328125 
Q 53.90625 49.265625 50.4375 45.09375 
Q 46.96875 40.921875 40.578125 39.3125 
z
" id="DejaVuSans-33"/>
      </defs>
      <g transform="translate(359.467215 322.182437)scale(0.1 -0.1)">
       <use xlink:href="#DejaVuSans-33"/>
       <use x="63.623047" xlink:href="#DejaVuSans-30"/>
      </g>
     </g>
    </g>
    <g id="xtick_8">
     <g id="line2d_8">
      <g>
       <use style="stroke:#000000;stroke-width:0.8;" x="413.855535" xlink:href="#mef0925b511" y="307.584"/>
      </g>
     </g>
     <g id="text_8">
      <!-- 35 -->
      <g transform="translate(407.493035 322.182437)scale(0.1 -0.1)">
       <use xlink:href="#DejaVuSans-33"/>
       <use x="63.623047" xlink:href="#DejaVuSans-35"/>
      </g>
     </g>
    </g>
   </g>
   <g id="matplotlib.axis_2">
    <g id="ytick_1">
     <g id="line2d_9">
      <defs>
       <path d="M 0 0 
L -3.5 0 
" id="mb66a75cedd" style="stroke:#000000;stroke-width:0.8;"/>
      </defs>
      <g>
       <use style="stroke:#000000;stroke-width:0.8;" x="57.6" xlink:href="#mb66a75cedd" y="307.584"/>
      </g>
     </g>
     <g id="text_9">
      <!-- −1.0 -->
      <defs>
       <path d="M 10.59375 35.5 
L 73.1875 35.5 
L 73.1875 27.203125 
L 10.59375 27.203125 
z
" id="DejaVuSans-2212"/>
       <path d="M 10.6875 12.40625 
L 21 12.40625 
L 21 0 
L 10.6875 0 
z
" id="DejaVuSans-2e"/>
      </defs>
      <g transform="translate(26.317187 311.383219)scale(0.1 -0.1)">
       <use xlink:href="#DejaVuSans-2212"/>
       <use x="83.789062" xlink:href="#DejaVuSans-31"/>
       <use x="147.412109" xlink:href="#DejaVuSans-2e"/>
       <use x="179.199219" xlink:href="#DejaVuSans-30"/>
      </g>
     </g>
    </g>
    <g id="ytick_2">
     <g id="line2d_10">
      <g>
       <use style="stroke:#000000;stroke-width:0.8;" x="57.6" xlink:href="#mb66a75cedd" y="274.32"/>
      </g>
     </g>
     <g id="text_10">
      <!-- −0.5 -->
      <g transform="translate(26.317187 278.119219)scale(0.1 -0.1)">
       <use xlink:href="#DejaVuSans-2212"/>
       <use x="83.789062" xlink:href="#DejaVuSans-30"/>
       <use x="147.412109" xlink:href="#DejaVuSans-2e"/>
       <use x="179.199219" xlink:href="#DejaVuSans-35"/>
      </g>
     </g>
    </g>
    <g id="ytick_3">
     <g id="line2d_11">
      <g>
       <use style="stroke:#000000;stroke-width:0.8;" x="57.6" xlink:href="#mb66a75cedd" y="241.056"/>
      </g>
     </g>
     <g id="text_11">
      <!-- 0.0 -->
      <g transform="translate(34.696875 244.855219)scale(0.1 -0.1)">
       <use xlink:href="#DejaVuSans-30"/>
       <use x="63.623047" xlink:href="#DejaVuSans-2e"/>
       <use x="95.410156" xlink:href="#DejaVuSans-30"/>
      </g>
     </g>
    </g>
    <g id="ytick_4">
     <g id="line2d_12">
      <g>
       <use style="stroke:#000000;stroke-width:0.8;" x="57.6" xlink:href="#mb66a75cedd" y="207.792"/>
      </g>
     </g>
     <g id="text_12">
      <!-- 0.5 -->
      <g transform="translate(34.696875 211.591219)scale(0.1 -0.1)">
       <use xlink:href="#DejaVuSans-30"/>
       <use x="63.623047" xlink:href="#DejaVuSans-2e"/>
       <use x="95.410156" xlink:href="#DejaVuSans-35"/>
      </g>
     </g>
    </g>
    <g id="ytick_5">
     <g id="line2d_13">
      <g>
       <use style="stroke:#000000;stroke-width:0.8;" x="57.6" xlink:href="#mb66a75cedd" y="174.528"/>
      </g>
     </g>
     <g id="text_13">
      <!-- 1.0 -->
      <g transform="translate(34.696875 178.327219)scale(0.1 -0.1)">
       <use xlink:href="#DejaVuSans-31"/>
       <use x="63.623047" xlink:href="#DejaVuSans-2e"/>
       <use x="95.410156" xlink:href="#DejaVuSans-30"/>
      </g>
     </g>
    </g>
    <g id="ytick_6">
     <g id="line2d_14">
      <g>
       <use style="stroke:#000000;stroke-width:0.8;" x="57.6" xlink:href="#mb66a75cedd" y="141.264"/>
      </g>
     </g>
     <g id="text_14">
      <!-- 1.5 -->
      <g transform="translate(34.696875 145.063219)scale(0.1 -0.1)">
       <use xlink:href="#DejaVuSans-31"/>
       <use x="63.623047" xlink:href="#DejaVuSans-2e"/>
       <use x="95.410156" xlink:href="#DejaVuSans-35"/>
      </g>
     </g>
    </g>
    <g id="ytick_7">
     <g id="line2d_15">
      <g>
       <use style="stroke:#000000;stroke-width:0.8;" x="57.6" xlink:href="#mb66a75cedd" y="108"/>
      </g>
     </g>
     <g id="text_15">
      <!-- 2.0 -->
      <g transform="translate(34.696875 111.799219)scale(0.1 -0.1)">
       <use xlink:href="#DejaVuSans-32"/>
       <use x="63.623047" xlink:href="#DejaVuSans-2e"/>
       <use x="95.410156" xlink:href="#DejaVuSans-30"/>
      </g>
     </g>
    </g>
    <g id="ytick_8">
     <g id="line2d_16">
      <g>
       <use style="stroke:#000000;stroke-width:0.8;" x="57.6" xlink:href="#mb66a75cedd" y="74.736"/>
      </g>
     </g>
     <g id="text_16">
      <!-- 2.5 -->
      <g transform="translate(34.696875 78.535219)scale(0.1 -0.1)">
       <use xlink:href="#DejaVuSans-32"/>
       <use x="63.623047" xlink:href="#DejaVuSans-2e"/>
       <use x="95.410156" xlink:href="#DejaVuSans-35"/>
      </g>
     </g>
    </g>
    <g id="ytick_9">
     <g id="line2d_17">
      <g>
       <use style="stroke:#000000;stroke-width:0.8;" x="57.6" xlink:href="#mb66a75cedd" y="41.472"/>
      </g>
     </g>
     <g id="text_17">
      <!-- 3.0 -->
      <g transform="translate(34.696875 45.271219)scale(0.1 -0.1)">
       <use xlink:href="#DejaVuSans-33"/>
       <use x="63.623047" xlink:href="#DejaVuSans-2e"/>
       <use x="95.410156" xlink:href="#DejaVuSans-30"/>
      </g>
     </g>
    </g>
   </g>
   <g id="LineCollection_1">
    <path clip-path="url(#pcc4918cffd)" d="M 77.674793 124.282613 
L 77.674793 74.173993 
" style="fill:none;stroke:#000000;stroke-width:1.5;"/>
    <path clip-path="url(#pcc4918cffd)" d="M 87.279957 119.040122 
L 87.279957 78.249651 
" style="fill:none;stroke:#000000;stroke-width:1.5;"/>
    <path clip-path="url(#pcc4918cffd)" d="M 96.885121 232.689055 
L 96.885121 204.315914 
" style="fill:none;stroke:#000000;stroke-width:1.5;"/>
    <path clip-path="url(#pcc4918cffd)" d="M 106.490285 64.732676 
L 106.490285 -1 
" style="fill:none;stroke:#000000;stroke-width:1.5;"/>
    <path clip-path="url(#pcc4918cffd)" d="M 116.095449 52.898469 
L 116.095449 -1 
" style="fill:none;stroke:#000000;stroke-width:1.5;"/>
    <path clip-path="url(#pcc4918cffd)" d="M 125.700613 17.990428 
L 125.700613 -1 
" style="fill:none;stroke:#000000;stroke-width:1.5;"/>
    <path clip-path="url(#pcc4918cffd)" d="M 135.305777 154.597776 
L 135.305777 123.377652 
" style="fill:none;stroke:#000000;stroke-width:1.5;"/>
    <path clip-path="url(#pcc4918cffd)" d="M 144.910941 193.708186 
L 144.910941 167.696599 
" style="fill:none;stroke:#000000;stroke-width:1.5;"/>
    <path clip-path="url(#pcc4918cffd)" d="M 154.516105 133.321123 
L 154.516105 102.355771 
" style="fill:none;stroke:#000000;stroke-width:1.5;"/>
    <path clip-path="url(#pcc4918cffd)" style="fill:none;stroke:#000000;stroke-width:1.5;"/>
    <path clip-path="url(#pcc4918cffd)" style="fill:none;stroke:#000000;stroke-width:1.5;"/>
    <path clip-path="url(#pcc4918cffd)" d="M 192.936762 154.589071 
L 192.936762 122.281858 
" style="fill:none;stroke:#000000;stroke-width:1.5;"/>
    <path clip-path="url(#pcc4918cffd)" d="M 202.541926 91.448669 
L 202.541926 68.266091 
" style="fill:none;stroke:#000000;stroke-width:1.5;"/>
    <path clip-path="url(#pcc4918cffd)" d="M 212.14709 75.205395 
L 212.14709 50.183297 
" style="fill:none;stroke:#000000;stroke-width:1.5;"/>
    <path clip-path="url(#pcc4918cffd)" d="M 221.752254 110.404412 
L 221.752254 80.92304 
" style="fill:none;stroke:#000000;stroke-width:1.5;"/>
    <path clip-path="url(#pcc4918cffd)" d="M 231.357418 201.161659 
L 231.357418 172.101907 
" style="fill:none;stroke:#000000;stroke-width:1.5;"/>
    <path clip-path="url(#pcc4918cffd)" d="M 240.962582 186.635002 
L 240.962582 162.095486 
" style="fill:none;stroke:#000000;stroke-width:1.5;"/>
    <path clip-path="url(#pcc4918cffd)" d="M 250.567746 53.913979 
L 250.567746 5.658755 
" style="fill:none;stroke:#000000;stroke-width:1.5;"/>
    <path clip-path="url(#pcc4918cffd)" style="fill:none;stroke:#000000;stroke-width:1.5;"/>
    <path clip-path="url(#pcc4918cffd)" d="M 269.778074 80.340571 
L 269.778074 35.896306 
" style="fill:none;stroke:#000000;stroke-width:1.5;"/>
    <path clip-path="url(#pcc4918cffd)" d="M 279.383238 95.96793 
L 279.383238 -1 
" style="fill:none;stroke:#000000;stroke-width:1.5;"/>
    <path clip-path="url(#pcc4918cffd)" style="fill:none;stroke:#000000;stroke-width:1.5;"/>
    <path clip-path="url(#pcc4918cffd)" d="M 298.593566 47.89029 
L 298.593566 -1 
" style="fill:none;stroke:#000000;stroke-width:1.5;"/>
    <path clip-path="url(#pcc4918cffd)" d="M 308.198731 95.958987 
L 308.198731 53.537621 
" style="fill:none;stroke:#000000;stroke-width:1.5;"/>
    <path clip-path="url(#pcc4918cffd)" d="M 317.803895 127.927986 
L 317.803895 103.863115 
" style="fill:none;stroke:#000000;stroke-width:1.5;"/>
    <path clip-path="url(#pcc4918cffd)" d="M 327.409059 107.494737 
L 327.409059 81.987102 
" style="fill:none;stroke:#000000;stroke-width:1.5;"/>
    <path clip-path="url(#pcc4918cffd)" d="M 337.014223 243.809879 
L 337.014223 223.280298 
" style="fill:none;stroke:#000000;stroke-width:1.5;"/>
    <path clip-path="url(#pcc4918cffd)" d="M 346.619387 87.369206 
L 346.619387 29.120085 
" style="fill:none;stroke:#000000;stroke-width:1.5;"/>
    <path clip-path="url(#pcc4918cffd)" d="M 356.224551 111.571399 
L 356.224551 29.12733 
" style="fill:none;stroke:#000000;stroke-width:1.5;"/>
    <path clip-path="url(#pcc4918cffd)" d="M 365.829715 225.425067 
L 365.829715 206.343111 
" style="fill:none;stroke:#000000;stroke-width:1.5;"/>
    <path clip-path="url(#pcc4918cffd)" d="M 375.434879 229.918314 
L 375.434879 208.9909 
" style="fill:none;stroke:#000000;stroke-width:1.5;"/>
    <path clip-path="url(#pcc4918cffd)" d="M 385.040043 178.57482 
L 385.040043 147.65129 
" style="fill:none;stroke:#000000;stroke-width:1.5;"/>
    <path clip-path="url(#pcc4918cffd)" d="M 394.645207 241.056 
L 394.645207 241.056 
" style="fill:none;stroke:#000000;stroke-width:1.5;"/>
   </g>
   <g id="patch_37">
    <path d="M 57.6 307.584 
L 57.6 41.472 
" style="fill:none;stroke:#000000;stroke-linecap:square;stroke-linejoin:miter;stroke-width:0.8;"/>
   </g>
   <g id="patch_38">
    <path d="M 414.72 307.584 
L 414.72 41.472 
" style="fill:none;stroke:#000000;stroke-linecap:square;stroke-linejoin:miter;stroke-width:0.8;"/>
   </g>
   <g id="patch_39">
    <path d="M 57.6 307.584 
L 414.72 307.584 
" style="fill:none;stroke:#000000;stroke-linecap:square;stroke-linejoin:miter;stroke-width:0.8;"/>
   </g>
   <g id="patch_40">
    <path d="M 57.6 41.472 
L 414.72 41.472 
" style="fill:none;stroke:#000000;stroke-linecap:square;stroke-linejoin:miter;stroke-width:0.8;"/>
   </g>
  </g>
 </g>
 <defs>
  <clipPath id="pcc4918cffd">
   <rect height="266.112" width="357.12" x="57.6" y="41.472"/>
  </clipPath>
 </defs>
</svg>
