<?xml version="1.0" encoding="utf-8" standalone="no"?>
<!DOCTYPE svg PUBLIC "-//W3C//DTD SVG 1.1//EN"
  "http://www.w3.org/Graphics/SVG/1.1/DTD/svg11.dtd">
<!-- Created with matplotlib (http://matplotlib.org/) -->
<svg height="345pt" version="1.1" viewBox="0 0 460 345" width="460pt" xmlns="http://www.w3.org/2000/svg" xmlns:xlink="http://www.w3.org/1999/xlink">
 <defs>
  <style type="text/css">
*{stroke-linecap:butt;stroke-linejoin:round;}
  </style>
 </defs>
 <g id="figure_1">
  <g id="patch_1">
   <path d="M 0 345.6 
L 460.8 345.6 
L 460.8 0 
L 0 0 
z
" style="fill:#ffffff;"/>
  </g>
  <g id="axes_1">
   <g id="patch_2">
    <path d="M 105.984 311.04 
L 354.816 311.04 
L 354.816 34.56 
L 105.984 34.56 
z
" style="fill:#ffffff;"/>
   </g>
   <g id="PathCollection_1">
    <defs>
     <path d="M 0 5.477226 
C 1.452577 5.477226 2.845856 4.900111 3.872983 3.872983 
C 4.900111 2.845856 5.477226 1.452577 5.477226 0 
C 5.477226 -1.452577 4.900111 -2.845856 3.872983 -3.872983 
C 2.845856 -4.900111 1.452577 -5.477226 0 -5.477226 
C -1.452577 -5.477226 -2.845856 -4.900111 -3.872983 -3.872983 
C -4.900111 -2.845856 -5.477226 -1.452577 -5.477226 0 
C -5.477226 1.452577 -4.900111 2.845856 -3.872983 3.872983 
C -2.845856 4.900111 -1.452577 5.477226 0 5.477226 
z
" id="m1eb4d14fd5" style="stroke:#000000;stroke-opacity:0.8;"/>
    </defs>
    <g clip-path="url(#p302de52032)">
     <use style="fill:#0000ff;fill-opacity:0.8;stroke:#000000;stroke-opacity:0.8;" x="118.425064" xlink:href="#m1eb4d14fd5" y="145.367906"/>
     <use style="fill:#0000ff;fill-opacity:0.8;stroke:#000000;stroke-opacity:0.8;" x="149.243345" xlink:href="#m1eb4d14fd5" y="160.960175"/>
     <use style="fill:#0000ff;fill-opacity:0.8;stroke:#000000;stroke-opacity:0.8;" x="118.425064" xlink:href="#m1eb4d14fd5" y="169.518849"/>
     <use style="fill:#0000ff;fill-opacity:0.8;stroke:#000000;stroke-opacity:0.8;" x="235.761199" xlink:href="#m1eb4d14fd5" y="201.911729"/>
     <use style="fill:#0000ff;fill-opacity:0.8;stroke:#000000;stroke-opacity:0.8;" x="149.243345" xlink:href="#m1eb4d14fd5" y="158.203611"/>
     <use style="fill:#0000ff;fill-opacity:0.8;stroke:#000000;stroke-opacity:0.8;" x="118.425064" xlink:href="#m1eb4d14fd5" y="176.68035"/>
     <use style="fill:#0000ff;fill-opacity:0.8;stroke:#000000;stroke-opacity:0.8;" x="118.425064" xlink:href="#m1eb4d14fd5" y="122.888172"/>
     <use style="fill:#0000ff;fill-opacity:0.8;stroke:#000000;stroke-opacity:0.8;" x="118.425064" xlink:href="#m1eb4d14fd5" y="132.757637"/>
     <use style="fill:#0000ff;fill-opacity:0.8;stroke:#000000;stroke-opacity:0.8;" x="259.725728" xlink:href="#m1eb4d14fd5" y="210.346372"/>
     <use style="fill:#0000ff;fill-opacity:0.8;stroke:#000000;stroke-opacity:0.8;" x="198.089166" xlink:href="#m1eb4d14fd5" y="181.961268"/>
     <use style="fill:#0000ff;fill-opacity:0.8;stroke:#000000;stroke-opacity:0.8;" x="118.425064" xlink:href="#m1eb4d14fd5" y="130.890294"/>
     <use style="fill:#0000ff;fill-opacity:0.8;stroke:#000000;stroke-opacity:0.8;" x="180.061627" xlink:href="#m1eb4d14fd5" y="152.475652"/>
     <use style="fill:#0000ff;fill-opacity:0.8;stroke:#000000;stroke-opacity:0.8;" x="189.982897" xlink:href="#m1eb4d14fd5" y="215.955048"/>
     <use style="fill:#0000ff;fill-opacity:0.8;stroke:#000000;stroke-opacity:0.8;" x="189.982897" xlink:href="#m1eb4d14fd5" y="130.896943"/>
     <use style="fill:#0000ff;fill-opacity:0.8;stroke:#000000;stroke-opacity:0.8;" x="180.061627" xlink:href="#m1eb4d14fd5" y="153.266252"/>
     <use style="fill:#0000ff;fill-opacity:0.8;stroke:#000000;stroke-opacity:0.8;" x="305.371507" xlink:href="#m1eb4d14fd5" y="232.412161"/>
     <use style="fill:#0000ff;fill-opacity:0.8;stroke:#000000;stroke-opacity:0.8;" x="189.982897" xlink:href="#m1eb4d14fd5" y="167.610152"/>
     <use style="fill:#0000ff;fill-opacity:0.8;stroke:#000000;stroke-opacity:0.8;" x="118.425064" xlink:href="#m1eb4d14fd5" y="140.267623"/>
     <use style="fill:#0000ff;fill-opacity:0.8;stroke:#000000;stroke-opacity:0.8;" x="167.270884" xlink:href="#m1eb4d14fd5" y="226.553499"/>
     <use style="fill:#0000ff;fill-opacity:0.8;stroke:#000000;stroke-opacity:0.8;" x="189.982897" xlink:href="#m1eb4d14fd5" y="179.589646"/>
     <use style="fill:#0000ff;fill-opacity:0.8;stroke:#000000;stroke-opacity:0.8;" x="249.338889" xlink:href="#m1eb4d14fd5" y="205.480488"/>
     <use style="fill:#0000ff;fill-opacity:0.8;stroke:#000000;stroke-opacity:0.8;" x="167.270884" xlink:href="#m1eb4d14fd5" y="154.722288"/>
     <use style="fill:#0000ff;fill-opacity:0.8;stroke:#000000;stroke-opacity:0.8;" x="149.243345" xlink:href="#m1eb4d14fd5" y="174.91279"/>
     <use style="fill:#0000ff;fill-opacity:0.8;stroke:#000000;stroke-opacity:0.8;" x="118.425064" xlink:href="#m1eb4d14fd5" y="180.255657"/>
     <use style="fill:#0000ff;fill-opacity:0.8;stroke:#000000;stroke-opacity:0.8;" x="235.761199" xlink:href="#m1eb4d14fd5" y="233.119481"/>
     <use style="fill:#0000ff;fill-opacity:0.8;stroke:#000000;stroke-opacity:0.8;" x="204.942918" xlink:href="#m1eb4d14fd5" y="196.799067"/>
     <use style="fill:#0000ff;fill-opacity:0.8;stroke:#000000;stroke-opacity:0.8;" x="280.157171" xlink:href="#m1eb4d14fd5" y="196.278118"/>
     <use style="fill:#0000ff;fill-opacity:0.8;stroke:#000000;stroke-opacity:0.8;" x="216.116704" xlink:href="#m1eb4d14fd5" y="175.033656"/>
     <use style="fill:#0000ff;fill-opacity:0.8;stroke:#000000;stroke-opacity:0.8;" x="167.270884" xlink:href="#m1eb4d14fd5" y="117.808654"/>
     <use style="fill:#0000ff;fill-opacity:0.8;stroke:#000000;stroke-opacity:0.8;" x="232.466256" xlink:href="#m1eb4d14fd5" y="212.534993"/>
     <use style="fill:#0000ff;fill-opacity:0.8;stroke:#000000;stroke-opacity:0.8;" x="118.425064" xlink:href="#m1eb4d14fd5" y="188.684481"/>
     <use style="fill:#0000ff;fill-opacity:0.8;stroke:#000000;stroke-opacity:0.8;" x="118.425064" xlink:href="#m1eb4d14fd5" y="135.137107"/>
     <use style="fill:#0000ff;fill-opacity:0.8;stroke:#000000;stroke-opacity:0.8;" x="235.761199" xlink:href="#m1eb4d14fd5" y="171.246769"/>
     <use style="fill:#0000ff;fill-opacity:0.8;stroke:#000000;stroke-opacity:0.8;" x="180.061627" xlink:href="#m1eb4d14fd5" y="188.798008"/>
     <use style="fill:#0000ff;fill-opacity:0.8;stroke:#000000;stroke-opacity:0.8;" x="118.425064" xlink:href="#m1eb4d14fd5" y="189.197213"/>
     <use style="fill:#0000ff;fill-opacity:0.8;stroke:#000000;stroke-opacity:0.8;" x="225.038801" xlink:href="#m1eb4d14fd5" y="205.702658"/>
     <use style="fill:#0000ff;fill-opacity:0.8;stroke:#000000;stroke-opacity:0.8;" x="118.425064" xlink:href="#m1eb4d14fd5" y="173.564418"/>
     <use style="fill:#0000ff;fill-opacity:0.8;stroke:#000000;stroke-opacity:0.8;" x="342.374936" xlink:href="#m1eb4d14fd5" y="264.96"/>
     <use style="fill:#0000ff;fill-opacity:0.8;stroke:#000000;stroke-opacity:0.8;" x="149.243345" xlink:href="#m1eb4d14fd5" y="107.053969"/>
     <use style="fill:#0000ff;fill-opacity:0.8;stroke:#000000;stroke-opacity:0.8;" x="304.02409" xlink:href="#m1eb4d14fd5" y="230.049054"/>
     <use style="fill:#0000ff;fill-opacity:0.8;stroke:#000000;stroke-opacity:0.8;" x="118.425064" xlink:href="#m1eb4d14fd5" y="144.085103"/>
     <use style="fill:#0000ff;fill-opacity:0.8;stroke:#000000;stroke-opacity:0.8;" x="272.516471" xlink:href="#m1eb4d14fd5" y="235.359939"/>
     <use style="fill:#0000ff;fill-opacity:0.8;stroke:#000000;stroke-opacity:0.8;" x="284.607019" xlink:href="#m1eb4d14fd5" y="175.550844"/>
     <use style="fill:#0000ff;fill-opacity:0.8;stroke:#000000;stroke-opacity:0.8;" x="180.061627" xlink:href="#m1eb4d14fd5" y="131.974604"/>
     <use style="fill:#0000ff;fill-opacity:0.8;stroke:#000000;stroke-opacity:0.8;" x="118.425064" xlink:href="#m1eb4d14fd5" y="114.098359"/>
     <use style="fill:#0000ff;fill-opacity:0.8;stroke:#000000;stroke-opacity:0.8;" x="149.243345" xlink:href="#m1eb4d14fd5" y="146.113225"/>
     <use style="fill:#0000ff;fill-opacity:0.8;stroke:#000000;stroke-opacity:0.8;" x="216.116704" xlink:href="#m1eb4d14fd5" y="168.844441"/>
     <use style="fill:#0000ff;fill-opacity:0.8;stroke:#000000;stroke-opacity:0.8;" x="225.038801" xlink:href="#m1eb4d14fd5" y="204.15167"/>
     <use style="fill:#0000ff;fill-opacity:0.8;stroke:#000000;stroke-opacity:0.8;" x="118.425064" xlink:href="#m1eb4d14fd5" y="148.066175"/>
     <use style="fill:#0000ff;fill-opacity:0.8;stroke:#000000;stroke-opacity:0.8;" x="180.061627" xlink:href="#m1eb4d14fd5" y="184.013045"/>
     <use style="fill:#0000ff;fill-opacity:0.8;stroke:#000000;stroke-opacity:0.8;" x="167.270884" xlink:href="#m1eb4d14fd5" y="198.903909"/>
     <use style="fill:#0000ff;fill-opacity:0.8;stroke:#000000;stroke-opacity:0.8;" x="118.425064" xlink:href="#m1eb4d14fd5" y="83.358218"/>
     <use style="fill:#0000ff;fill-opacity:0.8;stroke:#000000;stroke-opacity:0.8;" x="118.425064" xlink:href="#m1eb4d14fd5" y="158.087987"/>
     <use style="fill:#0000ff;fill-opacity:0.8;stroke:#000000;stroke-opacity:0.8;" x="220.801179" xlink:href="#m1eb4d14fd5" y="194.203022"/>
     <use style="fill:#0000ff;fill-opacity:0.8;stroke:#000000;stroke-opacity:0.8;" x="118.425064" xlink:href="#m1eb4d14fd5" y="161.433809"/>
     <use style="fill:#0000ff;fill-opacity:0.8;stroke:#000000;stroke-opacity:0.8;" x="313.256023" xlink:href="#m1eb4d14fd5" y="231.611462"/>
     <use style="fill:#0000ff;fill-opacity:0.8;stroke:#000000;stroke-opacity:0.8;" x="204.942918" xlink:href="#m1eb4d14fd5" y="204.110597"/>
     <use style="fill:#0000ff;fill-opacity:0.8;stroke:#000000;stroke-opacity:0.8;" x="189.982897" xlink:href="#m1eb4d14fd5" y="142.284269"/>
     <use style="fill:#0000ff;fill-opacity:0.8;stroke:#000000;stroke-opacity:0.8;" x="241.698189" xlink:href="#m1eb4d14fd5" y="208.171825"/>
     <use style="fill:#0000ff;fill-opacity:0.8;stroke:#000000;stroke-opacity:0.8;" x="272.516471" xlink:href="#m1eb4d14fd5" y="226.367653"/>
    </g>
   </g>
   <g id="PolyCollection_1">
    <path clip-path="url(#p302de52032)" d="M 105.984 129.685111 
L 105.984 151.899868 
L 108.497455 152.743218 
L 111.010909 153.675384 
L 113.524364 154.605868 
L 116.037818 155.535612 
L 118.551273 156.404055 
L 121.064727 157.279704 
L 123.578182 158.276662 
L 126.091636 159.265063 
L 128.605091 160.185969 
L 131.118545 161.058036 
L 133.632 161.946761 
L 136.145455 162.968777 
L 138.658909 163.925565 
L 141.172364 164.858447 
L 143.685818 165.79133 
L 146.199273 166.832963 
L 148.712727 167.782236 
L 151.226182 168.658917 
L 153.739636 169.569123 
L 156.253091 170.569375 
L 158.766545 171.570419 
L 161.28 172.589094 
L 163.793455 173.6317 
L 166.306909 174.586706 
L 168.820364 175.540155 
L 171.333818 176.611831 
L 173.847273 177.679534 
L 176.360727 178.680116 
L 178.874182 179.713244 
L 181.387636 180.828063 
L 183.901091 181.932808 
L 186.414545 183.024582 
L 188.928 183.891921 
L 191.441455 184.820973 
L 193.954909 185.773796 
L 196.468364 186.795668 
L 198.981818 187.829714 
L 201.495273 188.878716 
L 204.008727 189.919557 
L 206.522182 190.960365 
L 209.035636 192.023811 
L 211.549091 193.197887 
L 214.062545 194.225581 
L 216.576 195.267736 
L 219.089455 196.442919 
L 221.602909 197.68207 
L 224.116364 198.785142 
L 226.629818 199.90329 
L 229.143273 201.040189 
L 231.656727 202.188936 
L 234.170182 203.367975 
L 236.683636 204.473857 
L 239.197091 205.637926 
L 241.710545 206.861517 
L 244.224 208.000503 
L 246.737455 209.360374 
L 249.250909 210.507508 
L 251.764364 211.753329 
L 254.277818 213.084053 
L 256.791273 214.354028 
L 259.304727 215.624413 
L 261.818182 216.932713 
L 264.331636 218.161638 
L 266.845091 219.379729 
L 269.358545 220.595506 
L 271.872 221.801863 
L 274.385455 223.063538 
L 276.898909 224.327534 
L 279.412364 225.604626 
L 281.925818 226.849374 
L 284.439273 228.201971 
L 286.952727 229.519069 
L 289.466182 230.852834 
L 291.979636 232.128688 
L 294.493091 233.424256 
L 297.006545 234.737039 
L 299.52 236.045379 
L 302.033455 237.415318 
L 304.546909 238.800145 
L 307.060364 240.164708 
L 309.573818 241.528821 
L 312.087273 242.900193 
L 314.600727 244.270053 
L 317.114182 245.63882 
L 319.627636 247.007588 
L 322.141091 248.362926 
L 324.654545 249.722838 
L 327.168 251.098655 
L 329.681455 252.474473 
L 332.194909 253.850291 
L 334.708364 255.226108 
L 337.221818 256.598511 
L 339.735273 257.965748 
L 342.248727 259.274467 
L 344.762182 260.593172 
L 347.275636 261.961007 
L 349.789091 263.328843 
L 352.302545 264.696678 
L 354.816 266.068964 
L 354.816 233.784214 
L 354.816 233.784214 
L 352.302545 232.848542 
L 349.789091 231.912869 
L 347.275636 230.977197 
L 344.762182 230.041525 
L 342.248727 229.105853 
L 339.735273 228.201854 
L 337.221818 227.355172 
L 334.708364 226.508489 
L 332.194909 225.664233 
L 329.681455 224.820107 
L 327.168 223.976167 
L 324.654545 223.133695 
L 322.141091 222.291223 
L 319.627636 221.478712 
L 317.114182 220.689808 
L 314.600727 219.758847 
L 312.087273 218.911862 
L 309.573818 218.044233 
L 307.060364 217.115786 
L 304.546909 216.258572 
L 302.033455 215.423334 
L 299.52 214.586082 
L 297.006545 213.748139 
L 294.493091 212.910704 
L 291.979636 212.065912 
L 289.466182 211.066544 
L 286.952727 210.172813 
L 284.439273 209.317891 
L 281.925818 208.368932 
L 279.412364 207.260438 
L 276.898909 206.392508 
L 274.385455 205.376317 
L 271.872 204.376815 
L 269.358545 203.451315 
L 266.845091 202.529576 
L 264.331636 201.680898 
L 261.818182 200.739809 
L 259.304727 199.825294 
L 256.791273 198.850465 
L 254.277818 197.913175 
L 251.764364 196.922612 
L 249.250909 195.929274 
L 246.737455 195.111017 
L 244.224 194.160642 
L 241.710545 193.210268 
L 239.197091 192.250083 
L 236.683636 191.289401 
L 234.170182 190.12335 
L 231.656727 189.155595 
L 229.143273 188.047629 
L 226.629818 186.983212 
L 224.116364 185.883289 
L 221.602909 184.928209 
L 219.089455 183.989507 
L 216.576 182.81442 
L 214.062545 181.735109 
L 211.549091 180.78605 
L 209.035636 179.694966 
L 206.522182 178.621328 
L 204.008727 177.515301 
L 201.495273 176.496051 
L 198.981818 175.396627 
L 196.468364 174.263982 
L 193.954909 173.118987 
L 191.441455 171.93656 
L 188.928 170.761806 
L 186.414545 169.596223 
L 183.901091 168.460125 
L 181.387636 167.331307 
L 178.874182 166.122616 
L 176.360727 164.975314 
L 173.847273 163.767383 
L 171.333818 162.584506 
L 168.820364 161.394335 
L 166.306909 160.041526 
L 163.793455 158.848581 
L 161.28 157.593697 
L 158.766545 156.382864 
L 156.253091 155.221862 
L 153.739636 153.901824 
L 151.226182 152.692411 
L 148.712727 151.505736 
L 146.199273 150.319835 
L 143.685818 149.132387 
L 141.172364 147.86886 
L 138.658909 146.569808 
L 136.145455 145.306505 
L 133.632 144.035576 
L 131.118545 142.747565 
L 128.605091 141.43004 
L 126.091636 140.158334 
L 123.578182 138.878205 
L 121.064727 137.533523 
L 118.551273 136.186916 
L 116.037818 134.974434 
L 113.524364 133.608253 
L 111.010909 132.349804 
L 108.497455 131.004418 
L 105.984 129.685111 
z
" style="fill:#0000ff;fill-opacity:0.15;"/>
   </g>
   <g id="PathCollection_2">
    <defs>
     <path d="M 0 5.477226 
C 1.452577 5.477226 2.845856 4.900111 3.872983 3.872983 
C 4.900111 2.845856 5.477226 1.452577 5.477226 0 
C 5.477226 -1.452577 4.900111 -2.845856 3.872983 -3.872983 
C 2.845856 -4.900111 1.452577 -5.477226 0 -5.477226 
C -1.452577 -5.477226 -2.845856 -4.900111 -3.872983 -3.872983 
C -4.900111 -2.845856 -5.477226 -1.452577 -5.477226 0 
C -5.477226 1.452577 -4.900111 2.845856 -3.872983 3.872983 
C -2.845856 4.900111 -1.452577 5.477226 0 5.477226 
z
" id="m069006a808" style="stroke:#000000;"/>
    </defs>
    <g clip-path="url(#p302de52032)">
     <use style="fill:#ff0000;stroke:#000000;" x="228.907447" xlink:href="#m069006a808" y="80.807203"/>
     <use style="fill:#ff0000;stroke:#000000;" x="118.425064" xlink:href="#m069006a808" y="84.704354"/>
     <use style="fill:#ff0000;stroke:#000000;" x="303.334752" xlink:href="#m069006a808" y="102.592635"/>
     <use style="fill:#ff0000;stroke:#000000;" x="180.061627" xlink:href="#m069006a808" y="112.456339"/>
     <use style="fill:#ff0000;stroke:#000000;" x="281.312077" xlink:href="#m069006a808" y="86.200215"/>
     <use style="fill:#ff0000;stroke:#000000;" x="118.425064" xlink:href="#m069006a808" y="97.410473"/>
    </g>
   </g>
   <g id="PathCollection_3">
    <defs>
     <path d="M 0 5.477226 
C 1.452577 5.477226 2.845856 4.900111 3.872983 3.872983 
C 4.900111 2.845856 5.477226 1.452577 5.477226 0 
C 5.477226 -1.452577 4.900111 -2.845856 3.872983 -3.872983 
C 2.845856 -4.900111 1.452577 -5.477226 0 -5.477226 
C -1.452577 -5.477226 -2.845856 -4.900111 -3.872983 -3.872983 
C -4.900111 -2.845856 -5.477226 -1.452577 -5.477226 0 
C -5.477226 1.452577 -4.900111 2.845856 -3.872983 3.872983 
C -2.845856 4.900111 -1.452577 5.477226 0 5.477226 
z
" id="maf64dd1aee" style="stroke:#000000;"/>
    </defs>
    <g clip-path="url(#p302de52032)">
     <use style="fill:#00ffff;stroke:#000000;" x="118.425064" xlink:href="#maf64dd1aee" y="89.469712"/>
     <use style="fill:#00ffff;stroke:#000000;" x="180.061627" xlink:href="#maf64dd1aee" y="119.894551"/>
    </g>
   </g>
   <g id="matplotlib.axis_1">
    <g id="xtick_1">
     <g id="line2d_1">
      <defs>
       <path d="M 0 0 
L 0 3.5 
" id="ma389bc41c8" style="stroke:#000000;stroke-width:0.8;"/>
      </defs>
      <g>
       <use style="stroke:#000000;stroke-width:0.8;" x="118.425064" xlink:href="#ma389bc41c8" y="311.04"/>
      </g>
     </g>
     <g id="text_1">
      <!-- 0.0 -->
      <defs>
       <path d="M 31.78125 66.40625 
Q 24.171875 66.40625 20.328125 58.90625 
Q 16.5 51.421875 16.5 36.375 
Q 16.5 21.390625 20.328125 13.890625 
Q 24.171875 6.390625 31.78125 6.390625 
Q 39.453125 6.390625 43.28125 13.890625 
Q 47.125 21.390625 47.125 36.375 
Q 47.125 51.421875 43.28125 58.90625 
Q 39.453125 66.40625 31.78125 66.40625 
z
M 31.78125 74.21875 
Q 44.046875 74.21875 50.515625 64.515625 
Q 56.984375 54.828125 56.984375 36.375 
Q 56.984375 17.96875 50.515625 8.265625 
Q 44.046875 -1.421875 31.78125 -1.421875 
Q 19.53125 -1.421875 13.0625 8.265625 
Q 6.59375 17.96875 6.59375 36.375 
Q 6.59375 54.828125 13.0625 64.515625 
Q 19.53125 74.21875 31.78125 74.21875 
z
" id="DejaVuSans-30"/>
       <path d="M 10.6875 12.40625 
L 21 12.40625 
L 21 0 
L 10.6875 0 
z
" id="DejaVuSans-2e"/>
      </defs>
      <g transform="translate(110.473501 325.638438)scale(0.1 -0.1)">
       <use xlink:href="#DejaVuSans-30"/>
       <use x="63.623047" xlink:href="#DejaVuSans-2e"/>
       <use x="95.410156" xlink:href="#DejaVuSans-30"/>
      </g>
     </g>
    </g>
    <g id="xtick_2">
     <g id="line2d_2">
      <g>
       <use style="stroke:#000000;stroke-width:0.8;" x="169.613121" xlink:href="#ma389bc41c8" y="311.04"/>
      </g>
     </g>
     <g id="text_2">
      <!-- 0.5 -->
      <defs>
       <path d="M 10.796875 72.90625 
L 49.515625 72.90625 
L 49.515625 64.59375 
L 19.828125 64.59375 
L 19.828125 46.734375 
Q 21.96875 47.46875 24.109375 47.828125 
Q 26.265625 48.1875 28.421875 48.1875 
Q 40.625 48.1875 47.75 41.5 
Q 54.890625 34.8125 54.890625 23.390625 
Q 54.890625 11.625 47.5625 5.09375 
Q 40.234375 -1.421875 26.90625 -1.421875 
Q 22.3125 -1.421875 17.546875 -0.640625 
Q 12.796875 0.140625 7.71875 1.703125 
L 7.71875 11.625 
Q 12.109375 9.234375 16.796875 8.0625 
Q 21.484375 6.890625 26.703125 6.890625 
Q 35.15625 6.890625 40.078125 11.328125 
Q 45.015625 15.765625 45.015625 23.390625 
Q 45.015625 31 40.078125 35.4375 
Q 35.15625 39.890625 26.703125 39.890625 
Q 22.75 39.890625 18.8125 39.015625 
Q 14.890625 38.140625 10.796875 36.28125 
z
" id="DejaVuSans-35"/>
      </defs>
      <g transform="translate(161.661559 325.638438)scale(0.1 -0.1)">
       <use xlink:href="#DejaVuSans-30"/>
       <use x="63.623047" xlink:href="#DejaVuSans-2e"/>
       <use x="95.410156" xlink:href="#DejaVuSans-35"/>
      </g>
     </g>
    </g>
    <g id="xtick_3">
     <g id="line2d_3">
      <g>
       <use style="stroke:#000000;stroke-width:0.8;" x="220.801179" xlink:href="#ma389bc41c8" y="311.04"/>
      </g>
     </g>
     <g id="text_3">
      <!-- 1.0 -->
      <defs>
       <path d="M 12.40625 8.296875 
L 28.515625 8.296875 
L 28.515625 63.921875 
L 10.984375 60.40625 
L 10.984375 69.390625 
L 28.421875 72.90625 
L 38.28125 72.90625 
L 38.28125 8.296875 
L 54.390625 8.296875 
L 54.390625 0 
L 12.40625 0 
z
" id="DejaVuSans-31"/>
      </defs>
      <g transform="translate(212.849616 325.638438)scale(0.1 -0.1)">
       <use xlink:href="#DejaVuSans-31"/>
       <use x="63.623047" xlink:href="#DejaVuSans-2e"/>
       <use x="95.410156" xlink:href="#DejaVuSans-30"/>
      </g>
     </g>
    </g>
    <g id="xtick_4">
     <g id="line2d_4">
      <g>
       <use style="stroke:#000000;stroke-width:0.8;" x="271.989236" xlink:href="#ma389bc41c8" y="311.04"/>
      </g>
     </g>
     <g id="text_4">
      <!-- 1.5 -->
      <g transform="translate(264.037673 325.638438)scale(0.1 -0.1)">
       <use xlink:href="#DejaVuSans-31"/>
       <use x="63.623047" xlink:href="#DejaVuSans-2e"/>
       <use x="95.410156" xlink:href="#DejaVuSans-35"/>
      </g>
     </g>
    </g>
    <g id="xtick_5">
     <g id="line2d_5">
      <g>
       <use style="stroke:#000000;stroke-width:0.8;" x="323.177293" xlink:href="#ma389bc41c8" y="311.04"/>
      </g>
     </g>
     <g id="text_5">
      <!-- 2.0 -->
      <defs>
       <path d="M 19.1875 8.296875 
L 53.609375 8.296875 
L 53.609375 0 
L 7.328125 0 
L 7.328125 8.296875 
Q 12.9375 14.109375 22.625 23.890625 
Q 32.328125 33.6875 34.8125 36.53125 
Q 39.546875 41.84375 41.421875 45.53125 
Q 43.3125 49.21875 43.3125 52.78125 
Q 43.3125 58.59375 39.234375 62.25 
Q 35.15625 65.921875 28.609375 65.921875 
Q 23.96875 65.921875 18.8125 64.3125 
Q 13.671875 62.703125 7.8125 59.421875 
L 7.8125 69.390625 
Q 13.765625 71.78125 18.9375 73 
Q 24.125 74.21875 28.421875 74.21875 
Q 39.75 74.21875 46.484375 68.546875 
Q 53.21875 62.890625 53.21875 53.421875 
Q 53.21875 48.921875 51.53125 44.890625 
Q 49.859375 40.875 45.40625 35.40625 
Q 44.1875 33.984375 37.640625 27.21875 
Q 31.109375 20.453125 19.1875 8.296875 
z
" id="DejaVuSans-32"/>
      </defs>
      <g transform="translate(315.225731 325.638438)scale(0.1 -0.1)">
       <use xlink:href="#DejaVuSans-32"/>
       <use x="63.623047" xlink:href="#DejaVuSans-2e"/>
       <use x="95.410156" xlink:href="#DejaVuSans-30"/>
      </g>
     </g>
    </g>
    <g id="text_6">
     <!-- frequency -->
     <defs>
      <path d="M 37.109375 75.984375 
L 37.109375 68.5 
L 28.515625 68.5 
Q 23.6875 68.5 21.796875 66.546875 
Q 19.921875 64.59375 19.921875 59.515625 
L 19.921875 54.6875 
L 34.71875 54.6875 
L 34.71875 47.703125 
L 19.921875 47.703125 
L 19.921875 0 
L 10.890625 0 
L 10.890625 47.703125 
L 2.296875 47.703125 
L 2.296875 54.6875 
L 10.890625 54.6875 
L 10.890625 58.5 
Q 10.890625 67.625 15.140625 71.796875 
Q 19.390625 75.984375 28.609375 75.984375 
z
" id="DejaVuSans-66"/>
      <path d="M 41.109375 46.296875 
Q 39.59375 47.171875 37.8125 47.578125 
Q 36.03125 48 33.890625 48 
Q 26.265625 48 22.1875 43.046875 
Q 18.109375 38.09375 18.109375 28.8125 
L 18.109375 0 
L 9.078125 0 
L 9.078125 54.6875 
L 18.109375 54.6875 
L 18.109375 46.1875 
Q 20.953125 51.171875 25.484375 53.578125 
Q 30.03125 56 36.53125 56 
Q 37.453125 56 38.578125 55.875 
Q 39.703125 55.765625 41.0625 55.515625 
z
" id="DejaVuSans-72"/>
      <path d="M 56.203125 29.59375 
L 56.203125 25.203125 
L 14.890625 25.203125 
Q 15.484375 15.921875 20.484375 11.0625 
Q 25.484375 6.203125 34.421875 6.203125 
Q 39.59375 6.203125 44.453125 7.46875 
Q 49.3125 8.734375 54.109375 11.28125 
L 54.109375 2.78125 
Q 49.265625 0.734375 44.1875 -0.34375 
Q 39.109375 -1.421875 33.890625 -1.421875 
Q 20.796875 -1.421875 13.15625 6.1875 
Q 5.515625 13.8125 5.515625 26.8125 
Q 5.515625 40.234375 12.765625 48.109375 
Q 20.015625 56 32.328125 56 
Q 43.359375 56 49.78125 48.890625 
Q 56.203125 41.796875 56.203125 29.59375 
z
M 47.21875 32.234375 
Q 47.125 39.59375 43.09375 43.984375 
Q 39.0625 48.390625 32.421875 48.390625 
Q 24.90625 48.390625 20.390625 44.140625 
Q 15.875 39.890625 15.1875 32.171875 
z
" id="DejaVuSans-65"/>
      <path d="M 14.796875 27.296875 
Q 14.796875 17.390625 18.875 11.75 
Q 22.953125 6.109375 30.078125 6.109375 
Q 37.203125 6.109375 41.296875 11.75 
Q 45.40625 17.390625 45.40625 27.296875 
Q 45.40625 37.203125 41.296875 42.84375 
Q 37.203125 48.484375 30.078125 48.484375 
Q 22.953125 48.484375 18.875 42.84375 
Q 14.796875 37.203125 14.796875 27.296875 
z
M 45.40625 8.203125 
Q 42.578125 3.328125 38.25 0.953125 
Q 33.9375 -1.421875 27.875 -1.421875 
Q 17.96875 -1.421875 11.734375 6.484375 
Q 5.515625 14.40625 5.515625 27.296875 
Q 5.515625 40.1875 11.734375 48.09375 
Q 17.96875 56 27.875 56 
Q 33.9375 56 38.25 53.625 
Q 42.578125 51.265625 45.40625 46.390625 
L 45.40625 54.6875 
L 54.390625 54.6875 
L 54.390625 -20.796875 
L 45.40625 -20.796875 
z
" id="DejaVuSans-71"/>
      <path d="M 8.5 21.578125 
L 8.5 54.6875 
L 17.484375 54.6875 
L 17.484375 21.921875 
Q 17.484375 14.15625 20.5 10.265625 
Q 23.53125 6.390625 29.59375 6.390625 
Q 36.859375 6.390625 41.078125 11.03125 
Q 45.3125 15.671875 45.3125 23.6875 
L 45.3125 54.6875 
L 54.296875 54.6875 
L 54.296875 0 
L 45.3125 0 
L 45.3125 8.40625 
Q 42.046875 3.421875 37.71875 1 
Q 33.40625 -1.421875 27.6875 -1.421875 
Q 18.265625 -1.421875 13.375 4.4375 
Q 8.5 10.296875 8.5 21.578125 
z
M 31.109375 56 
z
" id="DejaVuSans-75"/>
      <path d="M 54.890625 33.015625 
L 54.890625 0 
L 45.90625 0 
L 45.90625 32.71875 
Q 45.90625 40.484375 42.875 44.328125 
Q 39.84375 48.1875 33.796875 48.1875 
Q 26.515625 48.1875 22.3125 43.546875 
Q 18.109375 38.921875 18.109375 30.90625 
L 18.109375 0 
L 9.078125 0 
L 9.078125 54.6875 
L 18.109375 54.6875 
L 18.109375 46.1875 
Q 21.34375 51.125 25.703125 53.5625 
Q 30.078125 56 35.796875 56 
Q 45.21875 56 50.046875 50.171875 
Q 54.890625 44.34375 54.890625 33.015625 
z
" id="DejaVuSans-6e"/>
      <path d="M 48.78125 52.59375 
L 48.78125 44.1875 
Q 44.96875 46.296875 41.140625 47.34375 
Q 37.3125 48.390625 33.40625 48.390625 
Q 24.65625 48.390625 19.8125 42.84375 
Q 14.984375 37.3125 14.984375 27.296875 
Q 14.984375 17.28125 19.8125 11.734375 
Q 24.65625 6.203125 33.40625 6.203125 
Q 37.3125 6.203125 41.140625 7.25 
Q 44.96875 8.296875 48.78125 10.40625 
L 48.78125 2.09375 
Q 45.015625 0.34375 40.984375 -0.53125 
Q 36.96875 -1.421875 32.421875 -1.421875 
Q 20.0625 -1.421875 12.78125 6.34375 
Q 5.515625 14.109375 5.515625 27.296875 
Q 5.515625 40.671875 12.859375 48.328125 
Q 20.21875 56 33.015625 56 
Q 37.15625 56 41.109375 55.140625 
Q 45.0625 54.296875 48.78125 52.59375 
z
" id="DejaVuSans-63"/>
      <path d="M 32.171875 -5.078125 
Q 28.375 -14.84375 24.75 -17.8125 
Q 21.140625 -20.796875 15.09375 -20.796875 
L 7.90625 -20.796875 
L 7.90625 -13.28125 
L 13.1875 -13.28125 
Q 16.890625 -13.28125 18.9375 -11.515625 
Q 21 -9.765625 23.484375 -3.21875 
L 25.09375 0.875 
L 2.984375 54.6875 
L 12.5 54.6875 
L 29.59375 11.921875 
L 46.6875 54.6875 
L 56.203125 54.6875 
z
" id="DejaVuSans-79"/>
     </defs>
     <g transform="translate(205.2125 339.316562)scale(0.1 -0.1)">
      <use xlink:href="#DejaVuSans-66"/>
      <use x="35.205078" xlink:href="#DejaVuSans-72"/>
      <use x="76.287109" xlink:href="#DejaVuSans-65"/>
      <use x="137.810547" xlink:href="#DejaVuSans-71"/>
      <use x="201.287109" xlink:href="#DejaVuSans-75"/>
      <use x="264.666016" xlink:href="#DejaVuSans-65"/>
      <use x="326.189453" xlink:href="#DejaVuSans-6e"/>
      <use x="389.568359" xlink:href="#DejaVuSans-63"/>
      <use x="444.548828" xlink:href="#DejaVuSans-79"/>
     </g>
    </g>
   </g>
   <g id="matplotlib.axis_2">
    <g id="ytick_1">
     <g id="line2d_6">
      <defs>
       <path d="M 0 0 
L -3.5 0 
" id="m6af69ce636" style="stroke:#000000;stroke-width:0.8;"/>
      </defs>
      <g>
       <use style="stroke:#000000;stroke-width:0.8;" x="105.984" xlink:href="#m6af69ce636" y="311.04"/>
      </g>
     </g>
     <g id="text_7">
      <!-- −1 -->
      <defs>
       <path d="M 10.59375 35.5 
L 73.1875 35.5 
L 73.1875 27.203125 
L 10.59375 27.203125 
z
" id="DejaVuSans-2212"/>
      </defs>
      <g transform="translate(84.241812 314.839219)scale(0.1 -0.1)">
       <use xlink:href="#DejaVuSans-2212"/>
       <use x="83.789062" xlink:href="#DejaVuSans-31"/>
      </g>
     </g>
    </g>
    <g id="ytick_2">
     <g id="line2d_7">
      <g>
       <use style="stroke:#000000;stroke-width:0.8;" x="105.984" xlink:href="#m6af69ce636" y="264.96"/>
      </g>
     </g>
     <g id="text_8">
      <!-- 0 -->
      <g transform="translate(92.6215 268.759219)scale(0.1 -0.1)">
       <use xlink:href="#DejaVuSans-30"/>
      </g>
     </g>
    </g>
    <g id="ytick_3">
     <g id="line2d_8">
      <g>
       <use style="stroke:#000000;stroke-width:0.8;" x="105.984" xlink:href="#m6af69ce636" y="218.88"/>
      </g>
     </g>
     <g id="text_9">
      <!-- 1 -->
      <g transform="translate(92.6215 222.679219)scale(0.1 -0.1)">
       <use xlink:href="#DejaVuSans-31"/>
      </g>
     </g>
    </g>
    <g id="ytick_4">
     <g id="line2d_9">
      <g>
       <use style="stroke:#000000;stroke-width:0.8;" x="105.984" xlink:href="#m6af69ce636" y="172.8"/>
      </g>
     </g>
     <g id="text_10">
      <!-- 2 -->
      <g transform="translate(92.6215 176.599219)scale(0.1 -0.1)">
       <use xlink:href="#DejaVuSans-32"/>
      </g>
     </g>
    </g>
    <g id="ytick_5">
     <g id="line2d_10">
      <g>
       <use style="stroke:#000000;stroke-width:0.8;" x="105.984" xlink:href="#m6af69ce636" y="126.72"/>
      </g>
     </g>
     <g id="text_11">
      <!-- 3 -->
      <defs>
       <path d="M 40.578125 39.3125 
Q 47.65625 37.796875 51.625 33 
Q 55.609375 28.21875 55.609375 21.1875 
Q 55.609375 10.40625 48.1875 4.484375 
Q 40.765625 -1.421875 27.09375 -1.421875 
Q 22.515625 -1.421875 17.65625 -0.515625 
Q 12.796875 0.390625 7.625 2.203125 
L 7.625 11.71875 
Q 11.71875 9.328125 16.59375 8.109375 
Q 21.484375 6.890625 26.8125 6.890625 
Q 36.078125 6.890625 40.9375 10.546875 
Q 45.796875 14.203125 45.796875 21.1875 
Q 45.796875 27.640625 41.28125 31.265625 
Q 36.765625 34.90625 28.71875 34.90625 
L 20.21875 34.90625 
L 20.21875 43.015625 
L 29.109375 43.015625 
Q 36.375 43.015625 40.234375 45.921875 
Q 44.09375 48.828125 44.09375 54.296875 
Q 44.09375 59.90625 40.109375 62.90625 
Q 36.140625 65.921875 28.71875 65.921875 
Q 24.65625 65.921875 20.015625 65.03125 
Q 15.375 64.15625 9.8125 62.3125 
L 9.8125 71.09375 
Q 15.4375 72.65625 20.34375 73.4375 
Q 25.25 74.21875 29.59375 74.21875 
Q 40.828125 74.21875 47.359375 69.109375 
Q 53.90625 64.015625 53.90625 55.328125 
Q 53.90625 49.265625 50.4375 45.09375 
Q 46.96875 40.921875 40.578125 39.3125 
z
" id="DejaVuSans-33"/>
      </defs>
      <g transform="translate(92.6215 130.519219)scale(0.1 -0.1)">
       <use xlink:href="#DejaVuSans-33"/>
      </g>
     </g>
    </g>
    <g id="ytick_6">
     <g id="line2d_11">
      <g>
       <use style="stroke:#000000;stroke-width:0.8;" x="105.984" xlink:href="#m6af69ce636" y="80.64"/>
      </g>
     </g>
     <g id="text_12">
      <!-- 4 -->
      <defs>
       <path d="M 37.796875 64.3125 
L 12.890625 25.390625 
L 37.796875 25.390625 
z
M 35.203125 72.90625 
L 47.609375 72.90625 
L 47.609375 25.390625 
L 58.015625 25.390625 
L 58.015625 17.1875 
L 47.609375 17.1875 
L 47.609375 0 
L 37.796875 0 
L 37.796875 17.1875 
L 4.890625 17.1875 
L 4.890625 26.703125 
z
" id="DejaVuSans-34"/>
      </defs>
      <g transform="translate(92.6215 84.439219)scale(0.1 -0.1)">
       <use xlink:href="#DejaVuSans-34"/>
      </g>
     </g>
    </g>
    <g id="ytick_7">
     <g id="line2d_12">
      <g>
       <use style="stroke:#000000;stroke-width:0.8;" x="105.984" xlink:href="#m6af69ce636" y="34.56"/>
      </g>
     </g>
     <g id="text_13">
      <!-- 5 -->
      <g transform="translate(92.6215 38.359219)scale(0.1 -0.1)">
       <use xlink:href="#DejaVuSans-35"/>
      </g>
     </g>
    </g>
    <g id="text_14">
     <!-- ddG_5Mg150K -->
     <defs>
      <path d="M 45.40625 46.390625 
L 45.40625 75.984375 
L 54.390625 75.984375 
L 54.390625 0 
L 45.40625 0 
L 45.40625 8.203125 
Q 42.578125 3.328125 38.25 0.953125 
Q 33.9375 -1.421875 27.875 -1.421875 
Q 17.96875 -1.421875 11.734375 6.484375 
Q 5.515625 14.40625 5.515625 27.296875 
Q 5.515625 40.1875 11.734375 48.09375 
Q 17.96875 56 27.875 56 
Q 33.9375 56 38.25 53.625 
Q 42.578125 51.265625 45.40625 46.390625 
z
M 14.796875 27.296875 
Q 14.796875 17.390625 18.875 11.75 
Q 22.953125 6.109375 30.078125 6.109375 
Q 37.203125 6.109375 41.296875 11.75 
Q 45.40625 17.390625 45.40625 27.296875 
Q 45.40625 37.203125 41.296875 42.84375 
Q 37.203125 48.484375 30.078125 48.484375 
Q 22.953125 48.484375 18.875 42.84375 
Q 14.796875 37.203125 14.796875 27.296875 
z
" id="DejaVuSans-64"/>
      <path d="M 59.515625 10.40625 
L 59.515625 29.984375 
L 43.40625 29.984375 
L 43.40625 38.09375 
L 69.28125 38.09375 
L 69.28125 6.78125 
Q 63.578125 2.734375 56.6875 0.65625 
Q 49.8125 -1.421875 42 -1.421875 
Q 24.90625 -1.421875 15.25 8.5625 
Q 5.609375 18.5625 5.609375 36.375 
Q 5.609375 54.25 15.25 64.234375 
Q 24.90625 74.21875 42 74.21875 
Q 49.125 74.21875 55.546875 72.453125 
Q 61.96875 70.703125 67.390625 67.28125 
L 67.390625 56.78125 
Q 61.921875 61.421875 55.765625 63.765625 
Q 49.609375 66.109375 42.828125 66.109375 
Q 29.4375 66.109375 22.71875 58.640625 
Q 16.015625 51.171875 16.015625 36.375 
Q 16.015625 21.625 22.71875 14.15625 
Q 29.4375 6.6875 42.828125 6.6875 
Q 48.046875 6.6875 52.140625 7.59375 
Q 56.25 8.5 59.515625 10.40625 
z
" id="DejaVuSans-47"/>
      <path d="M 50.984375 -16.609375 
L 50.984375 -23.578125 
L -0.984375 -23.578125 
L -0.984375 -16.609375 
z
" id="DejaVuSans-5f"/>
      <path d="M 9.8125 72.90625 
L 24.515625 72.90625 
L 43.109375 23.296875 
L 61.8125 72.90625 
L 76.515625 72.90625 
L 76.515625 0 
L 66.890625 0 
L 66.890625 64.015625 
L 48.09375 14.015625 
L 38.1875 14.015625 
L 19.390625 64.015625 
L 19.390625 0 
L 9.8125 0 
z
" id="DejaVuSans-4d"/>
      <path d="M 45.40625 27.984375 
Q 45.40625 37.75 41.375 43.109375 
Q 37.359375 48.484375 30.078125 48.484375 
Q 22.859375 48.484375 18.828125 43.109375 
Q 14.796875 37.75 14.796875 27.984375 
Q 14.796875 18.265625 18.828125 12.890625 
Q 22.859375 7.515625 30.078125 7.515625 
Q 37.359375 7.515625 41.375 12.890625 
Q 45.40625 18.265625 45.40625 27.984375 
z
M 54.390625 6.78125 
Q 54.390625 -7.171875 48.1875 -13.984375 
Q 42 -20.796875 29.203125 -20.796875 
Q 24.46875 -20.796875 20.265625 -20.09375 
Q 16.0625 -19.390625 12.109375 -17.921875 
L 12.109375 -9.1875 
Q 16.0625 -11.328125 19.921875 -12.34375 
Q 23.78125 -13.375 27.78125 -13.375 
Q 36.625 -13.375 41.015625 -8.765625 
Q 45.40625 -4.15625 45.40625 5.171875 
L 45.40625 9.625 
Q 42.625 4.78125 38.28125 2.390625 
Q 33.9375 0 27.875 0 
Q 17.828125 0 11.671875 7.65625 
Q 5.515625 15.328125 5.515625 27.984375 
Q 5.515625 40.671875 11.671875 48.328125 
Q 17.828125 56 27.875 56 
Q 33.9375 56 38.28125 53.609375 
Q 42.625 51.21875 45.40625 46.390625 
L 45.40625 54.6875 
L 54.390625 54.6875 
z
" id="DejaVuSans-67"/>
      <path d="M 9.8125 72.90625 
L 19.671875 72.90625 
L 19.671875 42.09375 
L 52.390625 72.90625 
L 65.09375 72.90625 
L 28.90625 38.921875 
L 67.671875 0 
L 54.6875 0 
L 19.671875 35.109375 
L 19.671875 0 
L 9.8125 0 
z
" id="DejaVuSans-4b"/>
     </defs>
     <g transform="translate(77.884 209.014844)rotate(-90)scale(0.1 -0.1)">
      <use xlink:href="#DejaVuSans-64"/>
      <use x="63.476562" xlink:href="#DejaVuSans-64"/>
      <use x="126.953125" xlink:href="#DejaVuSans-47"/>
      <use x="204.443359" xlink:href="#DejaVuSans-5f"/>
      <use x="254.443359" xlink:href="#DejaVuSans-35"/>
      <use x="318.066406" xlink:href="#DejaVuSans-4d"/>
      <use x="404.345703" xlink:href="#DejaVuSans-67"/>
      <use x="467.822266" xlink:href="#DejaVuSans-31"/>
      <use x="531.445312" xlink:href="#DejaVuSans-35"/>
      <use x="595.068359" xlink:href="#DejaVuSans-30"/>
      <use x="658.691406" xlink:href="#DejaVuSans-4b"/>
     </g>
    </g>
   </g>
   <g id="line2d_13">
    <path clip-path="url(#p302de52032)" d="M 105.984 140.418494 
L 108.497455 141.529179 
L 111.010909 142.639864 
L 113.524364 143.750549 
L 116.037818 144.861234 
L 118.551273 145.971919 
L 121.064727 147.082604 
L 123.578182 148.193289 
L 126.091636 149.303974 
L 128.605091 150.414659 
L 131.118545 151.525344 
L 133.632 152.636029 
L 136.145455 153.746714 
L 138.658909 154.857399 
L 141.172364 155.968084 
L 143.685818 157.078769 
L 146.199273 158.189454 
L 148.712727 159.300139 
L 151.226182 160.410824 
L 153.739636 161.521509 
L 156.253091 162.632194 
L 158.766545 163.742879 
L 161.28 164.853564 
L 163.793455 165.964249 
L 166.306909 167.074934 
L 168.820364 168.185619 
L 171.333818 169.296304 
L 173.847273 170.406989 
L 176.360727 171.517674 
L 178.874182 172.628359 
L 181.387636 173.739044 
L 183.901091 174.849728 
L 186.414545 175.960413 
L 188.928 177.071098 
L 191.441455 178.181783 
L 193.954909 179.292468 
L 196.468364 180.403153 
L 198.981818 181.513838 
L 201.495273 182.624523 
L 204.008727 183.735208 
L 206.522182 184.845893 
L 209.035636 185.956578 
L 211.549091 187.067263 
L 214.062545 188.177948 
L 216.576 189.288633 
L 219.089455 190.399318 
L 221.602909 191.510003 
L 224.116364 192.620688 
L 226.629818 193.731373 
L 229.143273 194.842058 
L 231.656727 195.952743 
L 234.170182 197.063428 
L 236.683636 198.174113 
L 239.197091 199.284798 
L 241.710545 200.395483 
L 244.224 201.506168 
L 246.737455 202.616853 
L 249.250909 203.727538 
L 251.764364 204.838223 
L 254.277818 205.948908 
L 256.791273 207.059593 
L 259.304727 208.170278 
L 261.818182 209.280963 
L 264.331636 210.391648 
L 266.845091 211.502333 
L 269.358545 212.613018 
L 271.872 213.723703 
L 274.385455 214.834388 
L 276.898909 215.945073 
L 279.412364 217.055758 
L 281.925818 218.166443 
L 284.439273 219.277128 
L 286.952727 220.387813 
L 289.466182 221.498498 
L 291.979636 222.609183 
L 294.493091 223.719868 
L 297.006545 224.830553 
L 299.52 225.941238 
L 302.033455 227.051923 
L 304.546909 228.162608 
L 307.060364 229.273293 
L 309.573818 230.383978 
L 312.087273 231.494663 
L 314.600727 232.605348 
L 317.114182 233.716033 
L 319.627636 234.826718 
L 322.141091 235.937403 
L 324.654545 237.048088 
L 327.168 238.158773 
L 329.681455 239.269458 
L 332.194909 240.380143 
L 334.708364 241.490828 
L 337.221818 242.601513 
L 339.735273 243.712198 
L 342.248727 244.822883 
L 344.762182 245.933568 
L 347.275636 247.044253 
L 349.789091 248.154938 
L 352.302545 249.265623 
L 354.816 250.376308 
" style="fill:none;stroke:#0000ff;stroke-linecap:square;stroke-width:2.25;"/>
   </g>
   <g id="patch_3">
    <path d="M 105.984 311.04 
L 105.984 34.56 
" style="fill:none;stroke:#000000;stroke-linecap:square;stroke-linejoin:miter;stroke-width:0.8;"/>
   </g>
   <g id="patch_4">
    <path d="M 354.816 311.04 
L 354.816 34.56 
" style="fill:none;stroke:#000000;stroke-linecap:square;stroke-linejoin:miter;stroke-width:0.8;"/>
   </g>
   <g id="patch_5">
    <path d="M 105.984 311.04 
L 354.816 311.04 
" style="fill:none;stroke:#000000;stroke-linecap:square;stroke-linejoin:miter;stroke-width:0.8;"/>
   </g>
   <g id="patch_6">
    <path d="M 105.984 34.56 
L 354.816 34.56 
" style="fill:none;stroke:#000000;stroke-linecap:square;stroke-linejoin:miter;stroke-width:0.8;"/>
   </g>
  </g>
 </g>
 <defs>
  <clipPath id="p302de52032">
   <rect height="276.48" width="248.832" x="105.984" y="34.56"/>
  </clipPath>
 </defs>
</svg>
