<?xml version="1.0" encoding="utf-8" standalone="no"?>
<!DOCTYPE svg PUBLIC "-//W3C//DTD SVG 1.1//EN"
  "http://www.w3.org/Graphics/SVG/1.1/DTD/svg11.dtd">
<!-- Created with matplotlib (http://matplotlib.org/) -->
<svg height="345pt" version="1.1" viewBox="0 0 460 345" width="460pt" xmlns="http://www.w3.org/2000/svg" xmlns:xlink="http://www.w3.org/1999/xlink">
 <defs>
  <style type="text/css">
*{stroke-linecap:butt;stroke-linejoin:round;}
  </style>
 </defs>
 <g id="figure_1">
  <g id="patch_1">
   <path d="M 0 345.6 
L 460.8 345.6 
L 460.8 0 
L 0 0 
z
" style="fill:#ffffff;"/>
  </g>
  <g id="axes_1">
   <g id="patch_2">
    <path d="M 57.6 307.584 
L 414.72 307.584 
L 414.72 41.472 
L 57.6 41.472 
z
" style="fill:#ffffff;"/>
   </g>
   <g id="PathCollection_1">
    <defs>
     <path d="M 0 2.236068 
C 0.593012 2.236068 1.161816 2.000462 1.581139 1.581139 
C 2.000462 1.161816 2.236068 0.593012 2.236068 0 
C 2.236068 -0.593012 2.000462 -1.161816 1.581139 -1.581139 
C 1.161816 -2.000462 0.593012 -2.236068 0 -2.236068 
C -0.593012 -2.236068 -1.161816 -2.000462 -1.581139 -1.581139 
C -2.000462 -1.161816 -2.236068 -0.593012 -2.236068 0 
C -2.236068 0.593012 -2.000462 1.161816 -1.581139 1.581139 
C -1.161816 2.000462 -0.593012 2.236068 0 2.236068 
z
" id="m74209efd18" style="stroke:#000000;"/>
    </defs>
    <g clip-path="url(#pa27287c16b)">
     <use style="fill:#0000ff;stroke:#000000;" x="117.562412" xlink:href="#m74209efd18" y="95.311941"/>
    </g>
   </g>
   <g id="PathCollection_2">
    <g clip-path="url(#pa27287c16b)">
     <use style="fill:#0000ff;stroke:#000000;" x="235.198714" xlink:href="#m74209efd18" y="117.851059"/>
    </g>
   </g>
   <g id="PathCollection_3">
    <defs>
     <path d="M 0 3.976354 
C 1.054541 3.976354 2.066033 3.55738 2.811707 2.811707 
C 3.55738 2.066033 3.976354 1.054541 3.976354 0 
C 3.976354 -1.054541 3.55738 -2.066033 2.811707 -2.811707 
C 2.066033 -3.55738 1.054541 -3.976354 0 -3.976354 
C -1.054541 -3.976354 -2.066033 -3.55738 -2.811707 -2.811707 
C -3.55738 -2.066033 -3.976354 -1.054541 -3.976354 0 
C -3.976354 1.054541 -3.55738 2.066033 -2.811707 2.811707 
C -2.066033 3.55738 -1.054541 3.976354 0 3.976354 
z
" id="mfc5dcd3a6c" style="stroke:#000000;"/>
    </defs>
    <g clip-path="url(#pa27287c16b)">
     <use style="fill:#0000ff;stroke:#000000;" x="113.073307" xlink:href="#mfc5dcd3a6c" y="95.095393"/>
    </g>
   </g>
   <g id="PathCollection_4">
    <defs>
     <path d="M 0 3.637136 
C 0.96458 3.637136 1.889783 3.253904 2.571843 2.571843 
C 3.253904 1.889783 3.637136 0.96458 3.637136 0 
C 3.637136 -0.96458 3.253904 -1.889783 2.571843 -2.571843 
C 1.889783 -3.253904 0.96458 -3.637136 0 -3.637136 
C -0.96458 -3.637136 -1.889783 -3.253904 -2.571843 -2.571843 
C -3.253904 -1.889783 -3.637136 -0.96458 -3.637136 0 
C -3.637136 0.96458 -3.253904 1.889783 -2.571843 2.571843 
C -1.889783 3.253904 -0.96458 3.637136 0 3.637136 
z
" id="m30baf16e01" style="stroke:#000000;"/>
    </defs>
    <g clip-path="url(#pa27287c16b)">
     <use style="fill:#0000ff;stroke:#000000;" x="104.090036" xlink:href="#m30baf16e01" y="95.010735"/>
    </g>
   </g>
   <g id="PathCollection_5">
    <g clip-path="url(#pa27287c16b)">
     <use style="fill:#0000ff;stroke:#000000;" x="143.417348" xlink:href="#m74209efd18" y="96.3814"/>
    </g>
   </g>
   <g id="PathCollection_6">
    <defs>
     <path d="M 0 2.659148 
C 0.705214 2.659148 1.38164 2.378963 1.880302 1.880302 
C 2.378963 1.38164 2.659148 0.705214 2.659148 0 
C 2.659148 -0.705214 2.378963 -1.38164 1.880302 -1.880302 
C 1.38164 -2.378963 0.705214 -2.659148 0 -2.659148 
C -0.705214 -2.659148 -1.38164 -2.378963 -1.880302 -1.880302 
C -2.378963 -1.38164 -2.659148 -0.705214 -2.659148 0 
C -2.659148 0.705214 -2.378963 1.38164 -1.880302 1.880302 
C -1.38164 2.378963 -0.705214 2.659148 0 2.659148 
z
" id="mb39f71854f" style="stroke:#000000;"/>
    </defs>
    <g clip-path="url(#pa27287c16b)">
     <use style="fill:#0000ff;stroke:#000000;" x="177.871326" xlink:href="#mb39f71854f" y="98.251095"/>
    </g>
   </g>
   <g id="PathCollection_7">
    <g clip-path="url(#pa27287c16b)">
     <use style="fill:#0000ff;stroke:#000000;" x="179.479025" xlink:href="#m74209efd18" y="95.178883"/>
    </g>
   </g>
   <g id="PathCollection_8">
    <defs>
     <path d="M 0 5.318296 
C 1.410429 5.318296 2.763279 4.757927 3.760603 3.760603 
C 4.757927 2.763279 5.318296 1.410429 5.318296 0 
C 5.318296 -1.410429 4.757927 -2.763279 3.760603 -3.760603 
C 2.763279 -4.757927 1.410429 -5.318296 0 -5.318296 
C -1.410429 -5.318296 -2.763279 -4.757927 -3.760603 -3.760603 
C -4.757927 -2.763279 -5.318296 -1.410429 -5.318296 0 
C -5.318296 1.410429 -4.757927 2.763279 -3.760603 3.760603 
C -2.763279 4.757927 -1.410429 5.318296 0 5.318296 
z
" id="m56f654d805" style="stroke:#000000;"/>
    </defs>
    <g clip-path="url(#pa27287c16b)">
     <use style="fill:#0000ff;stroke:#000000;" x="158.965068" xlink:href="#m56f654d805" y="94.876795"/>
    </g>
   </g>
   <g id="PathCollection_9">
    <defs>
     <path d="M 0 4.325308 
C 1.147085 4.325308 2.247343 3.869566 3.058454 3.058454 
C 3.869566 2.247343 4.325308 1.147085 4.325308 0 
C 4.325308 -1.147085 3.869566 -2.247343 3.058454 -3.058454 
C 2.247343 -3.869566 1.147085 -4.325308 0 -4.325308 
C -1.147085 -4.325308 -2.247343 -3.869566 -3.058454 -3.058454 
C -3.869566 -2.247343 -4.325308 -1.147085 -4.325308 0 
C -4.325308 1.147085 -3.869566 2.247343 -3.058454 3.058454 
C -2.247343 3.869566 -1.147085 4.325308 0 4.325308 
z
" id="m8577391183" style="stroke:#000000;"/>
    </defs>
    <g clip-path="url(#pa27287c16b)">
     <use style="fill:#0000ff;stroke:#000000;" x="127.24149" xlink:href="#m8577391183" y="94.546631"/>
    </g>
   </g>
   <g id="PathCollection_10">
    <defs>
     <path d="M 0 3.499636 
C 0.928114 3.499636 1.81834 3.130892 2.474616 2.474616 
C 3.130892 1.81834 3.499636 0.928114 3.499636 0 
C 3.499636 -0.928114 3.130892 -1.81834 2.474616 -2.474616 
C 1.81834 -3.130892 0.928114 -3.499636 0 -3.499636 
C -0.928114 -3.499636 -1.81834 -3.130892 -2.474616 -2.474616 
C -3.130892 -1.81834 -3.499636 -0.928114 -3.499636 0 
C -3.499636 0.928114 -3.130892 1.81834 -2.474616 2.474616 
C -1.81834 3.130892 -0.928114 3.499636 0 3.499636 
z
" id="m36fac0ddab" style="stroke:#000000;"/>
    </defs>
    <g clip-path="url(#pa27287c16b)">
     <use style="fill:#0000ff;stroke:#000000;" x="143.396183" xlink:href="#m36fac0ddab" y="99.137182"/>
    </g>
   </g>
   <g id="PathCollection_11">
    <defs>
     <path d="M 0 3.343702 
C 0.88676 3.343702 1.73732 2.991388 2.364354 2.364354 
C 2.991388 1.73732 3.343702 0.88676 3.343702 0 
C 3.343702 -0.88676 2.991388 -1.73732 2.364354 -2.364354 
C 1.73732 -2.991388 0.88676 -3.343702 0 -3.343702 
C -0.88676 -3.343702 -1.73732 -2.991388 -2.364354 -2.364354 
C -2.991388 -1.73732 -3.343702 -0.88676 -3.343702 0 
C -3.343702 0.88676 -2.991388 1.73732 -2.364354 2.364354 
C -1.73732 2.991388 -0.88676 3.343702 0 3.343702 
z
" id="mc8f924d4de" style="stroke:#000000;"/>
    </defs>
    <g clip-path="url(#pa27287c16b)">
     <use style="fill:#0000ff;stroke:#000000;" x="211.121898" xlink:href="#mc8f924d4de" y="94.198497"/>
    </g>
   </g>
   <g id="PathCollection_12">
    <g clip-path="url(#pa27287c16b)">
     <use style="fill:#0000ff;stroke:#000000;" x="183.485855" xlink:href="#m74209efd18" y="95.118998"/>
    </g>
   </g>
   <g id="PathCollection_13">
    <g clip-path="url(#pa27287c16b)">
     <use style="fill:#0000ff;stroke:#000000;" x="330.416633" xlink:href="#m74209efd18" y="177.845644"/>
    </g>
   </g>
   <g id="PathCollection_14">
    <defs>
     <path d="M 0 3.162278 
C 0.838646 3.162278 1.643056 2.82908 2.236068 2.236068 
C 2.82908 1.643056 3.162278 0.838646 3.162278 0 
C 3.162278 -0.838646 2.82908 -1.643056 2.236068 -2.236068 
C 1.643056 -2.82908 0.838646 -3.162278 0 -3.162278 
C -0.838646 -3.162278 -1.643056 -2.82908 -2.236068 -2.236068 
C -2.82908 -1.643056 -3.162278 -0.838646 -3.162278 0 
C -3.162278 0.838646 -2.82908 1.643056 -2.236068 2.236068 
C -1.643056 2.82908 -0.838646 3.162278 0 3.162278 
z
" id="m9569691dea" style="stroke:#000000;"/>
    </defs>
    <g clip-path="url(#pa27287c16b)">
     <use style="fill:#0000ff;stroke:#000000;" x="194.577894" xlink:href="#m9569691dea" y="104.58197"/>
    </g>
   </g>
   <g id="PathCollection_15">
    <g clip-path="url(#pa27287c16b)">
     <use style="fill:#0000ff;stroke:#000000;" x="141.720429" xlink:href="#m74209efd18" y="103.820553"/>
    </g>
   </g>
   <g id="PathCollection_16">
    <defs>
     <path d="M 0 2.942831 
C 0.780448 2.942831 1.529036 2.632756 2.080896 2.080896 
C 2.632756 1.529036 2.942831 0.780448 2.942831 0 
C 2.942831 -0.780448 2.632756 -1.529036 2.080896 -2.080896 
C 1.529036 -2.632756 0.780448 -2.942831 0 -2.942831 
C -0.780448 -2.942831 -1.529036 -2.632756 -2.080896 -2.080896 
C -2.632756 -1.529036 -2.942831 -0.780448 -2.942831 0 
C -2.942831 0.780448 -2.632756 1.529036 -2.080896 2.080896 
C -1.529036 2.632756 -0.780448 2.942831 0 2.942831 
z
" id="mb720792602" style="stroke:#000000;"/>
    </defs>
    <g clip-path="url(#pa27287c16b)">
     <use style="fill:#0000ff;stroke:#000000;" x="205.034146" xlink:href="#mb720792602" y="99.242716"/>
    </g>
   </g>
   <g id="PathCollection_17">
    <g clip-path="url(#pa27287c16b)">
     <use style="fill:#0000ff;stroke:#000000;" x="171.71022" xlink:href="#m9569691dea" y="97.969175"/>
    </g>
   </g>
   <g id="PathCollection_18">
    <g clip-path="url(#pa27287c16b)">
     <use style="fill:#0000ff;stroke:#000000;" x="166.903792" xlink:href="#mb39f71854f" y="96.352174"/>
    </g>
   </g>
   <g id="PathCollection_19">
    <defs>
     <path d="M 0 3.872983 
C 1.027127 3.872983 2.012324 3.464901 2.738613 2.738613 
C 3.464901 2.012324 3.872983 1.027127 3.872983 0 
C 3.872983 -1.027127 3.464901 -2.012324 2.738613 -2.738613 
C 2.012324 -3.464901 1.027127 -3.872983 0 -3.872983 
C -1.027127 -3.872983 -2.012324 -3.464901 -2.738613 -2.738613 
C -3.464901 -2.012324 -3.872983 -1.027127 -3.872983 0 
C -3.872983 1.027127 -3.464901 2.012324 -2.738613 2.738613 
C -2.012324 3.464901 -1.027127 3.872983 0 3.872983 
z
" id="maea53f918a" style="stroke:#000000;"/>
    </defs>
    <g clip-path="url(#pa27287c16b)">
     <use style="fill:#0000ff;stroke:#000000;" x="128.030229" xlink:href="#maea53f918a" y="94.541031"/>
    </g>
   </g>
   <g id="PathCollection_20">
    <g clip-path="url(#pa27287c16b)">
     <use style="fill:#0000ff;stroke:#000000;" x="174.40914" xlink:href="#mb39f71854f" y="99.2941"/>
    </g>
   </g>
   <g id="PathCollection_21">
    <defs>
     <path d="M 0 6.687403 
C 1.77352 6.687403 3.47464 5.982776 4.728708 4.728708 
C 5.982776 3.47464 6.687403 1.77352 6.687403 0 
C 6.687403 -1.77352 5.982776 -3.47464 4.728708 -4.728708 
C 3.47464 -5.982776 1.77352 -6.687403 0 -6.687403 
C -1.77352 -6.687403 -3.47464 -5.982776 -4.728708 -4.728708 
C -5.982776 -3.47464 -6.687403 -1.77352 -6.687403 0 
C -6.687403 1.77352 -5.982776 3.47464 -4.728708 4.728708 
C -3.47464 5.982776 -1.77352 6.687403 0 6.687403 
z
" id="m1c694ec248" style="stroke:#000000;"/>
    </defs>
    <g clip-path="url(#pa27287c16b)">
     <use style="fill:#0000ff;stroke:#000000;" x="67.400052" xlink:href="#m1c694ec248" y="91.116329"/>
    </g>
   </g>
   <g id="PathCollection_22">
    <defs>
     <path d="M 0 4.949232 
C 1.312552 4.949232 2.571521 4.42775 3.499636 3.499636 
C 4.42775 2.571521 4.949232 1.312552 4.949232 0 
C 4.949232 -1.312552 4.42775 -2.571521 3.499636 -3.499636 
C 2.571521 -4.42775 1.312552 -4.949232 0 -4.949232 
C -1.312552 -4.949232 -2.571521 -4.42775 -3.499636 -3.499636 
C -4.42775 -2.571521 -4.949232 -1.312552 -4.949232 0 
C -4.949232 1.312552 -4.42775 2.571521 -3.499636 3.499636 
C -2.571521 4.42775 -1.312552 4.949232 0 4.949232 
z
" id="mf7dd426665" style="stroke:#000000;"/>
    </defs>
    <g clip-path="url(#pa27287c16b)">
     <use style="fill:#0000ff;stroke:#000000;" x="182.540195" xlink:href="#mf7dd426665" y="97.152728"/>
    </g>
   </g>
   <g id="PathCollection_23">
    <g clip-path="url(#pa27287c16b)">
     <use style="fill:#0000ff;stroke:#000000;" x="191.472021" xlink:href="#mc8f924d4de" y="96.281288"/>
    </g>
   </g>
   <g id="PathCollection_24">
    <g clip-path="url(#pa27287c16b)">
     <use style="fill:#0000ff;stroke:#000000;" x="101.75933" xlink:href="#m9569691dea" y="91.191727"/>
    </g>
   </g>
   <g id="PathCollection_25">
    <g clip-path="url(#pa27287c16b)">
     <use style="fill:#0000ff;stroke:#000000;" x="173.322151" xlink:href="#mc8f924d4de" y="105.806658"/>
    </g>
   </g>
   <g id="PathCollection_26">
    <g clip-path="url(#pa27287c16b)">
     <use style="fill:#0000ff;stroke:#000000;" x="228.081943" xlink:href="#m74209efd18" y="97.174648"/>
    </g>
   </g>
   <g id="PathCollection_27">
    <g clip-path="url(#pa27287c16b)">
     <use style="fill:#0000ff;stroke:#000000;" x="168.883641" xlink:href="#m74209efd18" y="105.059703"/>
    </g>
   </g>
   <g id="PathCollection_28">
    <defs>
     <path d="M 0 4.072238 
C 1.07997 4.072238 2.115853 3.643161 2.879507 2.879507 
C 3.643161 2.115853 4.072238 1.07997 4.072238 0 
C 4.072238 -1.07997 3.643161 -2.115853 2.879507 -2.879507 
C 2.115853 -3.643161 1.07997 -4.072238 0 -4.072238 
C -1.07997 -4.072238 -2.115853 -3.643161 -2.879507 -2.879507 
C -3.643161 -2.115853 -4.072238 -1.07997 -4.072238 0 
C -4.072238 1.07997 -3.643161 2.115853 -2.879507 2.879507 
C -2.115853 3.643161 -1.07997 4.072238 0 4.072238 
z
" id="m37cbbff30b" style="stroke:#000000;"/>
    </defs>
    <g clip-path="url(#pa27287c16b)">
     <use style="fill:#0000ff;stroke:#000000;" x="87.959548" xlink:href="#m37cbbff30b" y="96.71393"/>
    </g>
   </g>
   <g id="PathCollection_29">
    <defs>
     <path d="M 0 6.349117 
C 1.683806 6.349117 3.298873 5.680134 4.489504 4.489504 
C 5.680134 3.298873 6.349117 1.683806 6.349117 0 
C 6.349117 -1.683806 5.680134 -3.298873 4.489504 -4.489504 
C 3.298873 -5.680134 1.683806 -6.349117 0 -6.349117 
C -1.683806 -6.349117 -3.298873 -5.680134 -4.489504 -4.489504 
C -5.680134 -3.298873 -6.349117 -1.683806 -6.349117 0 
C -6.349117 1.683806 -5.680134 3.298873 -4.489504 4.489504 
C -3.298873 5.680134 -1.683806 6.349117 0 6.349117 
z
" id="m5d2fd06d1a" style="stroke:#000000;"/>
    </defs>
    <g clip-path="url(#pa27287c16b)">
     <use style="fill:#0000ff;stroke:#000000;" x="146.998615" xlink:href="#m5d2fd06d1a" y="100.742085"/>
    </g>
   </g>
   <g id="PathCollection_30">
    <g clip-path="url(#pa27287c16b)">
     <use style="fill:#0000ff;stroke:#000000;" x="222.989895" xlink:href="#m9569691dea" y="102.669547"/>
    </g>
   </g>
   <g id="PathCollection_31">
    <g clip-path="url(#pa27287c16b)">
     <use style="fill:#0000ff;stroke:#000000;" x="102.99349" xlink:href="#m56f654d805" y="91.329963"/>
    </g>
   </g>
   <g id="PathCollection_32">
    <g clip-path="url(#pa27287c16b)">
     <use style="fill:#0000ff;stroke:#000000;" x="116.238881" xlink:href="#mb720792602" y="91.838271"/>
    </g>
   </g>
   <g id="PathCollection_33">
    <g clip-path="url(#pa27287c16b)">
     <use style="fill:#0000ff;stroke:#000000;" x="266.157213" xlink:href="#mc8f924d4de" y="108.039546"/>
    </g>
   </g>
   <g id="PathCollection_34">
    <defs>
     <path d="M 0 5.551763 
C 1.472345 5.551763 2.884584 4.966794 3.925689 3.925689 
C 4.966794 2.884584 5.551763 1.472345 5.551763 0 
C 5.551763 -1.472345 4.966794 -2.884584 3.925689 -3.925689 
C 2.884584 -4.966794 1.472345 -5.551763 0 -5.551763 
C -1.472345 -5.551763 -2.884584 -4.966794 -3.925689 -3.925689 
C -4.966794 -2.884584 -5.551763 -1.472345 -5.551763 0 
C -5.551763 1.472345 -4.966794 2.884584 -3.925689 3.925689 
C -2.884584 4.966794 -1.472345 5.551763 0 5.551763 
z
" id="m55d292fb6d" style="stroke:#000000;"/>
    </defs>
    <g clip-path="url(#pa27287c16b)">
     <use style="fill:#0000ff;stroke:#000000;" x="159.537004" xlink:href="#m55d292fb6d" y="93.223375"/>
    </g>
   </g>
   <g id="PathCollection_35">
    <g clip-path="url(#pa27287c16b)">
     <use style="fill:#0000ff;stroke:#000000;" x="158.243725" xlink:href="#m9569691dea" y="105.180288"/>
    </g>
   </g>
   <g id="PathCollection_36">
    <g clip-path="url(#pa27287c16b)">
     <use style="fill:#0000ff;stroke:#000000;" x="203.33928" xlink:href="#m74209efd18" y="100.120691"/>
    </g>
   </g>
   <g id="PathCollection_37">
    <defs>
     <path d="M 0 4.668457 
C 1.238089 4.668457 2.425637 4.176559 3.301098 3.301098 
C 4.176559 2.425637 4.668457 1.238089 4.668457 0 
C 4.668457 -1.238089 4.176559 -2.425637 3.301098 -3.301098 
C 2.425637 -4.176559 1.238089 -4.668457 0 -4.668457 
C -1.238089 -4.668457 -2.425637 -4.176559 -3.301098 -3.301098 
C -4.176559 -2.425637 -4.668457 -1.238089 -4.668457 0 
C -4.668457 1.238089 -4.176559 2.425637 -3.301098 3.301098 
C -2.425637 4.176559 -1.238089 4.668457 0 4.668457 
z
" id="m415f4089cc" style="stroke:#000000;"/>
    </defs>
    <g clip-path="url(#pa27287c16b)">
     <use style="fill:#0000ff;stroke:#000000;" x="99.073103" xlink:href="#m415f4089cc" y="98.801827"/>
    </g>
   </g>
   <g id="PathCollection_38">
    <defs>
     <path d="M 0 4.245911 
C 1.126029 4.245911 2.20609 3.798535 3.002312 3.002312 
C 3.798535 2.20609 4.245911 1.126029 4.245911 0 
C 4.245911 -1.126029 3.798535 -2.20609 3.002312 -3.002312 
C 2.20609 -3.798535 1.126029 -4.245911 0 -4.245911 
C -1.126029 -4.245911 -2.20609 -3.798535 -3.002312 -3.002312 
C -3.798535 -2.20609 -4.245911 -1.126029 -4.245911 0 
C -4.245911 1.126029 -3.798535 2.20609 -3.002312 3.002312 
C -2.20609 3.798535 -1.126029 4.245911 0 4.245911 
z
" id="m46c144f0f7" style="stroke:#000000;"/>
    </defs>
    <g clip-path="url(#pa27287c16b)">
     <use style="fill:#0000ff;stroke:#000000;" x="106.486726" xlink:href="#m46c144f0f7" y="94.178235"/>
    </g>
   </g>
   <g id="PathCollection_39">
    <g clip-path="url(#pa27287c16b)">
     <use style="fill:#0000ff;stroke:#000000;" x="254.050227" xlink:href="#m74209efd18" y="113.985381"/>
    </g>
   </g>
   <g id="PathCollection_40">
    <g clip-path="url(#pa27287c16b)">
     <use style="fill:#0000ff;stroke:#000000;" x="247.214831" xlink:href="#mb39f71854f" y="100.703049"/>
    </g>
   </g>
   <g id="PathCollection_41">
    <g clip-path="url(#pa27287c16b)">
     <use style="fill:#0000ff;stroke:#000000;" x="122.126748" xlink:href="#m8577391183" y="90.696019"/>
    </g>
   </g>
   <g id="PathCollection_42">
    <g clip-path="url(#pa27287c16b)">
     <use style="fill:#0000ff;stroke:#000000;" x="173.920001" xlink:href="#mb720792602" y="92.93835"/>
    </g>
   </g>
   <g id="PathCollection_43">
    <g clip-path="url(#pa27287c16b)">
     <use style="fill:#0000ff;stroke:#000000;" x="193.835391" xlink:href="#m74209efd18" y="107.858591"/>
    </g>
   </g>
   <g id="PathCollection_44">
    <g clip-path="url(#pa27287c16b)">
     <use style="fill:#0000ff;stroke:#000000;" x="166.313814" xlink:href="#mc8f924d4de" y="93.92357"/>
    </g>
   </g>
   <g id="PathCollection_45">
    <g clip-path="url(#pa27287c16b)">
     <use style="fill:#0000ff;stroke:#000000;" x="178.531042" xlink:href="#m74209efd18" y="99.103883"/>
    </g>
   </g>
   <g id="PathCollection_46">
    <g clip-path="url(#pa27287c16b)">
     <use style="fill:#0000ff;stroke:#000000;" x="260.922863" xlink:href="#maea53f918a" y="108.645311"/>
    </g>
   </g>
   <g id="PathCollection_47">
    <g clip-path="url(#pa27287c16b)">
     <use style="fill:#0000ff;stroke:#000000;" x="211.924211" xlink:href="#m74209efd18" y="100.218695"/>
    </g>
   </g>
   <g id="PathCollection_48">
    <defs>
     <path d="M 0 6.397403 
C 1.696611 6.397403 3.323962 5.723332 4.523647 4.523647 
C 5.723332 3.323962 6.397403 1.696611 6.397403 0 
C 6.397403 -1.696611 5.723332 -3.323962 4.523647 -4.523647 
C 3.323962 -5.723332 1.696611 -6.397403 0 -6.397403 
C -1.696611 -6.397403 -3.323962 -5.723332 -4.523647 -4.523647 
C -5.723332 -3.323962 -6.397403 -1.696611 -6.397403 0 
C -6.397403 1.696611 -5.723332 3.323962 -4.523647 4.523647 
C -3.323962 5.723332 -1.696611 6.397403 0 6.397403 
z
" id="m9ea590cfe1" style="stroke:#000000;"/>
    </defs>
    <g clip-path="url(#pa27287c16b)">
     <use style="fill:#0000ff;stroke:#000000;" x="131.289324" xlink:href="#m9ea590cfe1" y="89.570634"/>
    </g>
   </g>
   <g id="PathCollection_49">
    <g clip-path="url(#pa27287c16b)">
     <use style="fill:#0000ff;stroke:#000000;" x="156.362242" xlink:href="#m8577391183" y="101.27725"/>
    </g>
   </g>
   <g id="PathCollection_50">
    <g clip-path="url(#pa27287c16b)">
     <use style="fill:#0000ff;stroke:#000000;" x="208.395654" xlink:href="#m74209efd18" y="95.743727"/>
    </g>
   </g>
   <g id="PathCollection_51">
    <g clip-path="url(#pa27287c16b)">
     <use style="fill:#0000ff;stroke:#000000;" x="183.66873" xlink:href="#m74209efd18" y="98.506189"/>
    </g>
   </g>
   <g id="PathCollection_52">
    <defs>
     <path d="M 0 7.877079 
C 2.089026 7.877079 4.092772 7.0471 5.569936 5.569936 
C 7.0471 4.092772 7.877079 2.089026 7.877079 0 
C 7.877079 -2.089026 7.0471 -4.092772 5.569936 -5.569936 
C 4.092772 -7.0471 2.089026 -7.877079 0 -7.877079 
C -2.089026 -7.877079 -4.092772 -7.0471 -5.569936 -5.569936 
C -7.0471 -4.092772 -7.877079 -2.089026 -7.877079 0 
C -7.877079 2.089026 -7.0471 4.092772 -5.569936 5.569936 
C -4.092772 7.0471 -2.089026 7.877079 0 7.877079 
z
" id="mba2a4d1458" style="stroke:#000000;"/>
    </defs>
    <g clip-path="url(#pa27287c16b)">
     <use style="fill:#0000ff;stroke:#000000;" x="93.312" xlink:href="#mba2a4d1458" y="85.824"/>
    </g>
   </g>
   <g id="PathCollection_53">
    <g clip-path="url(#pa27287c16b)">
     <use style="fill:#0000ff;stroke:#000000;" x="181.897298" xlink:href="#m74209efd18" y="97.01579"/>
    </g>
   </g>
   <g id="PathCollection_54">
    <defs>
     <path d="M 0 4.472136 
C 1.186024 4.472136 2.323632 4.000923 3.162278 3.162278 
C 4.000923 2.323632 4.472136 1.186024 4.472136 0 
C 4.472136 -1.186024 4.000923 -2.323632 3.162278 -3.162278 
C 2.323632 -4.000923 1.186024 -4.472136 0 -4.472136 
C -1.186024 -4.472136 -2.323632 -4.000923 -3.162278 -3.162278 
C -4.000923 -2.323632 -4.472136 -1.186024 -4.472136 0 
C -4.472136 1.186024 -4.000923 2.323632 -3.162278 3.162278 
C -2.323632 4.000923 -1.186024 4.472136 0 4.472136 
z
" id="m67e97417db" style="stroke:#000000;"/>
    </defs>
    <g clip-path="url(#pa27287c16b)">
     <use style="fill:#0000ff;stroke:#000000;" x="185.877219" xlink:href="#m67e97417db" y="92.018711"/>
    </g>
   </g>
   <g id="PathCollection_55">
    <g clip-path="url(#pa27287c16b)">
     <use style="fill:#0000ff;stroke:#000000;" x="160.11114" xlink:href="#mb39f71854f" y="96.92819"/>
    </g>
   </g>
   <g id="PathCollection_56">
    <defs>
     <path d="M 0 5.692425 
C 1.509649 5.692425 2.957669 5.092635 4.025152 4.025152 
C 5.092635 2.957669 5.692425 1.509649 5.692425 0 
C 5.692425 -1.509649 5.092635 -2.957669 4.025152 -4.025152 
C 2.957669 -5.092635 1.509649 -5.692425 0 -5.692425 
C -1.509649 -5.692425 -2.957669 -5.092635 -4.025152 -4.025152 
C -5.092635 -2.957669 -5.692425 -1.509649 -5.692425 0 
C -5.692425 1.509649 -5.092635 2.957669 -4.025152 4.025152 
C -2.957669 5.092635 -1.509649 5.692425 0 5.692425 
z
" id="m6ab3683b37" style="stroke:#000000;"/>
    </defs>
    <g clip-path="url(#pa27287c16b)">
     <use style="fill:#0000ff;stroke:#000000;" x="116.458144" xlink:href="#m6ab3683b37" y="92.313924"/>
    </g>
   </g>
   <g id="PathCollection_57">
    <g clip-path="url(#pa27287c16b)">
     <use style="fill:#0000ff;stroke:#000000;" x="226.019133" xlink:href="#m30baf16e01" y="100.236997"/>
    </g>
   </g>
   <g id="PathCollection_58">
    <g clip-path="url(#pa27287c16b)">
     <use style="fill:#0000ff;stroke:#000000;" x="155.471763" xlink:href="#m74209efd18" y="94.643413"/>
    </g>
   </g>
   <g id="PathCollection_59">
    <g clip-path="url(#pa27287c16b)">
     <use style="fill:#0000ff;stroke:#000000;" x="229.701509" xlink:href="#mb720792602" y="105.664501"/>
    </g>
   </g>
   <g id="PathCollection_60">
    <g clip-path="url(#pa27287c16b)">
     <use style="fill:#0000ff;stroke:#000000;" x="183.60018" xlink:href="#m37cbbff30b" y="102.077858"/>
    </g>
   </g>
   <g id="PathCollection_61">
    <defs>
     <path d="M 0 4.161791 
C 1.10372 4.161791 2.162383 3.723279 2.942831 2.942831 
C 3.723279 2.162383 4.161791 1.10372 4.161791 0 
C 4.161791 -1.10372 3.723279 -2.162383 2.942831 -2.942831 
C 2.162383 -3.723279 1.10372 -4.161791 0 -4.161791 
C -1.10372 -4.161791 -2.162383 -3.723279 -2.942831 -2.942831 
C -3.723279 -2.162383 -4.161791 -1.10372 -4.161791 0 
C -4.161791 1.10372 -3.723279 2.162383 -2.942831 2.942831 
C -2.162383 3.723279 -1.10372 4.161791 0 4.161791 
z
" id="m0cfaaecd73" style="stroke:#000000;"/>
    </defs>
    <g clip-path="url(#pa27287c16b)">
     <use style="fill:#ff0000;stroke:#000000;" x="339.756696" xlink:href="#m0cfaaecd73" y="168.493429"/>
    </g>
   </g>
   <g id="PathCollection_62">
    <defs>
     <path d="M 0 3.162278 
C 0.838646 3.162278 1.643056 2.82908 2.236068 2.236068 
C 2.82908 1.643056 3.162278 0.838646 3.162278 0 
C 3.162278 -0.838646 2.82908 -1.643056 2.236068 -2.236068 
C 1.643056 -2.82908 0.838646 -3.162278 0 -3.162278 
C -0.838646 -3.162278 -1.643056 -2.82908 -2.236068 -2.236068 
C -2.82908 -1.643056 -3.162278 -0.838646 -3.162278 0 
C -3.162278 0.838646 -2.82908 1.643056 -2.236068 2.236068 
C -1.643056 2.82908 -0.838646 3.162278 0 3.162278 
z
" id="m82e3bc4fcc" style="stroke:#000000;"/>
    </defs>
    <g clip-path="url(#pa27287c16b)">
     <use style="fill:#ff0000;stroke:#000000;" x="283.982365" xlink:href="#m82e3bc4fcc" y="137.269113"/>
    </g>
   </g>
   <g id="PathCollection_63">
    <defs>
     <path d="M 0 5.587933 
C 1.481937 5.587933 2.903377 4.999153 3.951265 3.951265 
C 4.999153 2.903377 5.587933 1.481937 5.587933 0 
C 5.587933 -1.481937 4.999153 -2.903377 3.951265 -3.951265 
C 2.903377 -4.999153 1.481937 -5.587933 0 -5.587933 
C -1.481937 -5.587933 -2.903377 -4.999153 -3.951265 -3.951265 
C -4.999153 -2.903377 -5.587933 -1.481937 -5.587933 0 
C -5.587933 1.481937 -4.999153 2.903377 -3.951265 3.951265 
C -2.903377 4.999153 -1.481937 5.587933 0 5.587933 
z
" id="mc5c9e35431" style="stroke:#000000;"/>
    </defs>
    <g clip-path="url(#pa27287c16b)">
     <use style="fill:#ff0000;stroke:#000000;" x="368.99207" xlink:href="#mc5c9e35431" y="292.256498"/>
    </g>
   </g>
   <g id="PathCollection_64">
    <defs>
     <path d="M 0 2.236068 
C 0.593012 2.236068 1.161816 2.000462 1.581139 1.581139 
C 2.000462 1.161816 2.236068 0.593012 2.236068 0 
C 2.236068 -0.593012 2.000462 -1.161816 1.581139 -1.581139 
C 1.161816 -2.000462 0.593012 -2.236068 0 -2.236068 
C -0.593012 -2.236068 -1.161816 -2.000462 -1.581139 -1.581139 
C -2.000462 -1.161816 -2.236068 -0.593012 -2.236068 0 
C -2.236068 0.593012 -2.000462 1.161816 -1.581139 1.581139 
C -1.161816 2.000462 -0.593012 2.236068 0 2.236068 
z
" id="m323b526e30" style="stroke:#000000;"/>
    </defs>
    <g clip-path="url(#pa27287c16b)">
     <use style="fill:#ff0000;stroke:#000000;" x="324.41711" xlink:href="#m323b526e30" y="226.910956"/>
    </g>
   </g>
   <g id="PathCollection_65">
    <defs>
     <path d="M 0 6.324555 
C 1.677292 6.324555 3.286112 5.65816 4.472136 4.472136 
C 5.65816 3.286112 6.324555 1.677292 6.324555 0 
C 6.324555 -1.677292 5.65816 -3.286112 4.472136 -4.472136 
C 3.286112 -5.65816 1.677292 -6.324555 0 -6.324555 
C -1.677292 -6.324555 -3.286112 -5.65816 -4.472136 -4.472136 
C -5.65816 -3.286112 -6.324555 -1.677292 -6.324555 0 
C -6.324555 1.677292 -5.65816 3.286112 -4.472136 4.472136 
C -3.286112 5.65816 -1.677292 6.324555 0 6.324555 
z
" id="me40d9801ea" style="stroke:#000000;"/>
    </defs>
    <g clip-path="url(#pa27287c16b)">
     <use style="fill:#ff0000;stroke:#000000;" x="266.719483" xlink:href="#me40d9801ea" y="160.969547"/>
    </g>
   </g>
   <g id="PathCollection_66">
    <g clip-path="url(#pa27287c16b)">
     <use style="fill:#ff0000;stroke:#000000;" x="377.94259" xlink:href="#m323b526e30" y="301.584034"/>
    </g>
   </g>
   <g id="PathCollection_67">
    <defs>
     <path d="M 0 2.236068 
C 0.593012 2.236068 1.161816 2.000462 1.581139 1.581139 
C 2.000462 1.161816 2.236068 0.593012 2.236068 0 
C 2.236068 -0.593012 2.000462 -1.161816 1.581139 -1.581139 
C 1.161816 -2.000462 0.593012 -2.236068 0 -2.236068 
C -0.593012 -2.236068 -1.161816 -2.000462 -1.581139 -1.581139 
C -2.000462 -1.161816 -2.236068 -0.593012 -2.236068 0 
C -2.236068 0.593012 -2.000462 1.161816 -1.581139 1.581139 
C -1.161816 2.000462 -0.593012 2.236068 0 2.236068 
z
" id="m4819af952d" style="stroke:#000000;"/>
    </defs>
    <g clip-path="url(#pa27287c16b)">
     <use style="fill:#008000;stroke:#000000;" x="311.837578" xlink:href="#m4819af952d" y="153.749422"/>
    </g>
   </g>
   <g id="PathCollection_68">
    <defs>
     <path d="M 0 3.162278 
C 0.838646 3.162278 1.643056 2.82908 2.236068 2.236068 
C 2.82908 1.643056 3.162278 0.838646 3.162278 0 
C 3.162278 -0.838646 2.82908 -1.643056 2.236068 -2.236068 
C 1.643056 -2.82908 0.838646 -3.162278 0 -3.162278 
C -0.838646 -3.162278 -1.643056 -2.82908 -2.236068 -2.236068 
C -2.82908 -1.643056 -3.162278 -0.838646 -3.162278 0 
C -3.162278 0.838646 -2.82908 1.643056 -2.236068 2.236068 
C -1.643056 2.82908 -0.838646 3.162278 0 3.162278 
z
" id="m504a0b553d" style="stroke:#000000;"/>
    </defs>
    <g clip-path="url(#pa27287c16b)">
     <use style="fill:#008000;stroke:#000000;" x="300.495397" xlink:href="#m504a0b553d" y="258.560392"/>
    </g>
   </g>
   <g id="matplotlib.axis_1">
    <g id="xtick_1">
     <g id="line2d_1">
      <defs>
       <path d="M 0 0 
L 0 3.5 
" id="mdffce432ca" style="stroke:#000000;stroke-width:0.8;"/>
      </defs>
      <g>
       <use style="stroke:#000000;stroke-width:0.8;" x="93.312" xlink:href="#mdffce432ca" y="307.584"/>
      </g>
     </g>
     <g id="text_1">
      <!-- 0 -->
      <defs>
       <path d="M 31.78125 66.40625 
Q 24.171875 66.40625 20.328125 58.90625 
Q 16.5 51.421875 16.5 36.375 
Q 16.5 21.390625 20.328125 13.890625 
Q 24.171875 6.390625 31.78125 6.390625 
Q 39.453125 6.390625 43.28125 13.890625 
Q 47.125 21.390625 47.125 36.375 
Q 47.125 51.421875 43.28125 58.90625 
Q 39.453125 66.40625 31.78125 66.40625 
z
M 31.78125 74.21875 
Q 44.046875 74.21875 50.515625 64.515625 
Q 56.984375 54.828125 56.984375 36.375 
Q 56.984375 17.96875 50.515625 8.265625 
Q 44.046875 -1.421875 31.78125 -1.421875 
Q 19.53125 -1.421875 13.0625 8.265625 
Q 6.59375 17.96875 6.59375 36.375 
Q 6.59375 54.828125 13.0625 64.515625 
Q 19.53125 74.21875 31.78125 74.21875 
z
" id="DejaVuSans-30"/>
      </defs>
      <g transform="translate(90.13075 322.182437)scale(0.1 -0.1)">
       <use xlink:href="#DejaVuSans-30"/>
      </g>
     </g>
    </g>
    <g id="xtick_2">
     <g id="line2d_2">
      <g>
       <use style="stroke:#000000;stroke-width:0.8;" x="164.736" xlink:href="#mdffce432ca" y="307.584"/>
      </g>
     </g>
     <g id="text_2">
      <!-- 1 -->
      <defs>
       <path d="M 12.40625 8.296875 
L 28.515625 8.296875 
L 28.515625 63.921875 
L 10.984375 60.40625 
L 10.984375 69.390625 
L 28.421875 72.90625 
L 38.28125 72.90625 
L 38.28125 8.296875 
L 54.390625 8.296875 
L 54.390625 0 
L 12.40625 0 
z
" id="DejaVuSans-31"/>
      </defs>
      <g transform="translate(161.55475 322.182437)scale(0.1 -0.1)">
       <use xlink:href="#DejaVuSans-31"/>
      </g>
     </g>
    </g>
    <g id="xtick_3">
     <g id="line2d_3">
      <g>
       <use style="stroke:#000000;stroke-width:0.8;" x="236.16" xlink:href="#mdffce432ca" y="307.584"/>
      </g>
     </g>
     <g id="text_3">
      <!-- 2 -->
      <defs>
       <path d="M 19.1875 8.296875 
L 53.609375 8.296875 
L 53.609375 0 
L 7.328125 0 
L 7.328125 8.296875 
Q 12.9375 14.109375 22.625 23.890625 
Q 32.328125 33.6875 34.8125 36.53125 
Q 39.546875 41.84375 41.421875 45.53125 
Q 43.3125 49.21875 43.3125 52.78125 
Q 43.3125 58.59375 39.234375 62.25 
Q 35.15625 65.921875 28.609375 65.921875 
Q 23.96875 65.921875 18.8125 64.3125 
Q 13.671875 62.703125 7.8125 59.421875 
L 7.8125 69.390625 
Q 13.765625 71.78125 18.9375 73 
Q 24.125 74.21875 28.421875 74.21875 
Q 39.75 74.21875 46.484375 68.546875 
Q 53.21875 62.890625 53.21875 53.421875 
Q 53.21875 48.921875 51.53125 44.890625 
Q 49.859375 40.875 45.40625 35.40625 
Q 44.1875 33.984375 37.640625 27.21875 
Q 31.109375 20.453125 19.1875 8.296875 
z
" id="DejaVuSans-32"/>
      </defs>
      <g transform="translate(232.97875 322.182437)scale(0.1 -0.1)">
       <use xlink:href="#DejaVuSans-32"/>
      </g>
     </g>
    </g>
    <g id="xtick_4">
     <g id="line2d_4">
      <g>
       <use style="stroke:#000000;stroke-width:0.8;" x="307.584" xlink:href="#mdffce432ca" y="307.584"/>
      </g>
     </g>
     <g id="text_4">
      <!-- 3 -->
      <defs>
       <path d="M 40.578125 39.3125 
Q 47.65625 37.796875 51.625 33 
Q 55.609375 28.21875 55.609375 21.1875 
Q 55.609375 10.40625 48.1875 4.484375 
Q 40.765625 -1.421875 27.09375 -1.421875 
Q 22.515625 -1.421875 17.65625 -0.515625 
Q 12.796875 0.390625 7.625 2.203125 
L 7.625 11.71875 
Q 11.71875 9.328125 16.59375 8.109375 
Q 21.484375 6.890625 26.8125 6.890625 
Q 36.078125 6.890625 40.9375 10.546875 
Q 45.796875 14.203125 45.796875 21.1875 
Q 45.796875 27.640625 41.28125 31.265625 
Q 36.765625 34.90625 28.71875 34.90625 
L 20.21875 34.90625 
L 20.21875 43.015625 
L 29.109375 43.015625 
Q 36.375 43.015625 40.234375 45.921875 
Q 44.09375 48.828125 44.09375 54.296875 
Q 44.09375 59.90625 40.109375 62.90625 
Q 36.140625 65.921875 28.71875 65.921875 
Q 24.65625 65.921875 20.015625 65.03125 
Q 15.375 64.15625 9.8125 62.3125 
L 9.8125 71.09375 
Q 15.4375 72.65625 20.34375 73.4375 
Q 25.25 74.21875 29.59375 74.21875 
Q 40.828125 74.21875 47.359375 69.109375 
Q 53.90625 64.015625 53.90625 55.328125 
Q 53.90625 49.265625 50.4375 45.09375 
Q 46.96875 40.921875 40.578125 39.3125 
z
" id="DejaVuSans-33"/>
      </defs>
      <g transform="translate(304.40275 322.182437)scale(0.1 -0.1)">
       <use xlink:href="#DejaVuSans-33"/>
      </g>
     </g>
    </g>
    <g id="xtick_5">
     <g id="line2d_5">
      <g>
       <use style="stroke:#000000;stroke-width:0.8;" x="379.008" xlink:href="#mdffce432ca" y="307.584"/>
      </g>
     </g>
     <g id="text_5">
      <!-- 4 -->
      <defs>
       <path d="M 37.796875 64.3125 
L 12.890625 25.390625 
L 37.796875 25.390625 
z
M 35.203125 72.90625 
L 47.609375 72.90625 
L 47.609375 25.390625 
L 58.015625 25.390625 
L 58.015625 17.1875 
L 47.609375 17.1875 
L 47.609375 0 
L 37.796875 0 
L 37.796875 17.1875 
L 4.890625 17.1875 
L 4.890625 26.703125 
z
" id="DejaVuSans-34"/>
      </defs>
      <g transform="translate(375.82675 322.182437)scale(0.1 -0.1)">
       <use xlink:href="#DejaVuSans-34"/>
      </g>
     </g>
    </g>
   </g>
   <g id="matplotlib.axis_2">
    <g id="ytick_1">
     <g id="line2d_6">
      <defs>
       <path d="M 0 0 
L -3.5 0 
" id="m90e6dc7e74" style="stroke:#000000;stroke-width:0.8;"/>
      </defs>
      <g>
       <use style="stroke:#000000;stroke-width:0.8;" x="57.6" xlink:href="#m90e6dc7e74" y="307.584"/>
      </g>
     </g>
     <g id="text_6">
      <!-- 0.0 -->
      <defs>
       <path d="M 10.6875 12.40625 
L 21 12.40625 
L 21 0 
L 10.6875 0 
z
" id="DejaVuSans-2e"/>
      </defs>
      <g transform="translate(34.696875 311.383219)scale(0.1 -0.1)">
       <use xlink:href="#DejaVuSans-30"/>
       <use x="63.623047" xlink:href="#DejaVuSans-2e"/>
       <use x="95.410156" xlink:href="#DejaVuSans-30"/>
      </g>
     </g>
    </g>
    <g id="ytick_2">
     <g id="line2d_7">
      <g>
       <use style="stroke:#000000;stroke-width:0.8;" x="57.6" xlink:href="#m90e6dc7e74" y="263.232"/>
      </g>
     </g>
     <g id="text_7">
      <!-- 0.2 -->
      <g transform="translate(34.696875 267.031219)scale(0.1 -0.1)">
       <use xlink:href="#DejaVuSans-30"/>
       <use x="63.623047" xlink:href="#DejaVuSans-2e"/>
       <use x="95.410156" xlink:href="#DejaVuSans-32"/>
      </g>
     </g>
    </g>
    <g id="ytick_3">
     <g id="line2d_8">
      <g>
       <use style="stroke:#000000;stroke-width:0.8;" x="57.6" xlink:href="#m90e6dc7e74" y="218.88"/>
      </g>
     </g>
     <g id="text_8">
      <!-- 0.4 -->
      <g transform="translate(34.696875 222.679219)scale(0.1 -0.1)">
       <use xlink:href="#DejaVuSans-30"/>
       <use x="63.623047" xlink:href="#DejaVuSans-2e"/>
       <use x="95.410156" xlink:href="#DejaVuSans-34"/>
      </g>
     </g>
    </g>
    <g id="ytick_4">
     <g id="line2d_9">
      <g>
       <use style="stroke:#000000;stroke-width:0.8;" x="57.6" xlink:href="#m90e6dc7e74" y="174.528"/>
      </g>
     </g>
     <g id="text_9">
      <!-- 0.6 -->
      <defs>
       <path d="M 33.015625 40.375 
Q 26.375 40.375 22.484375 35.828125 
Q 18.609375 31.296875 18.609375 23.390625 
Q 18.609375 15.53125 22.484375 10.953125 
Q 26.375 6.390625 33.015625 6.390625 
Q 39.65625 6.390625 43.53125 10.953125 
Q 47.40625 15.53125 47.40625 23.390625 
Q 47.40625 31.296875 43.53125 35.828125 
Q 39.65625 40.375 33.015625 40.375 
z
M 52.59375 71.296875 
L 52.59375 62.3125 
Q 48.875 64.0625 45.09375 64.984375 
Q 41.3125 65.921875 37.59375 65.921875 
Q 27.828125 65.921875 22.671875 59.328125 
Q 17.53125 52.734375 16.796875 39.40625 
Q 19.671875 43.65625 24.015625 45.921875 
Q 28.375 48.1875 33.59375 48.1875 
Q 44.578125 48.1875 50.953125 41.515625 
Q 57.328125 34.859375 57.328125 23.390625 
Q 57.328125 12.15625 50.6875 5.359375 
Q 44.046875 -1.421875 33.015625 -1.421875 
Q 20.359375 -1.421875 13.671875 8.265625 
Q 6.984375 17.96875 6.984375 36.375 
Q 6.984375 53.65625 15.1875 63.9375 
Q 23.390625 74.21875 37.203125 74.21875 
Q 40.921875 74.21875 44.703125 73.484375 
Q 48.484375 72.75 52.59375 71.296875 
z
" id="DejaVuSans-36"/>
      </defs>
      <g transform="translate(34.696875 178.327219)scale(0.1 -0.1)">
       <use xlink:href="#DejaVuSans-30"/>
       <use x="63.623047" xlink:href="#DejaVuSans-2e"/>
       <use x="95.410156" xlink:href="#DejaVuSans-36"/>
      </g>
     </g>
    </g>
    <g id="ytick_5">
     <g id="line2d_10">
      <g>
       <use style="stroke:#000000;stroke-width:0.8;" x="57.6" xlink:href="#m90e6dc7e74" y="130.176"/>
      </g>
     </g>
     <g id="text_10">
      <!-- 0.8 -->
      <defs>
       <path d="M 31.78125 34.625 
Q 24.75 34.625 20.71875 30.859375 
Q 16.703125 27.09375 16.703125 20.515625 
Q 16.703125 13.921875 20.71875 10.15625 
Q 24.75 6.390625 31.78125 6.390625 
Q 38.8125 6.390625 42.859375 10.171875 
Q 46.921875 13.96875 46.921875 20.515625 
Q 46.921875 27.09375 42.890625 30.859375 
Q 38.875 34.625 31.78125 34.625 
z
M 21.921875 38.8125 
Q 15.578125 40.375 12.03125 44.71875 
Q 8.5 49.078125 8.5 55.328125 
Q 8.5 64.0625 14.71875 69.140625 
Q 20.953125 74.21875 31.78125 74.21875 
Q 42.671875 74.21875 48.875 69.140625 
Q 55.078125 64.0625 55.078125 55.328125 
Q 55.078125 49.078125 51.53125 44.71875 
Q 48 40.375 41.703125 38.8125 
Q 48.828125 37.15625 52.796875 32.3125 
Q 56.78125 27.484375 56.78125 20.515625 
Q 56.78125 9.90625 50.3125 4.234375 
Q 43.84375 -1.421875 31.78125 -1.421875 
Q 19.734375 -1.421875 13.25 4.234375 
Q 6.78125 9.90625 6.78125 20.515625 
Q 6.78125 27.484375 10.78125 32.3125 
Q 14.796875 37.15625 21.921875 38.8125 
z
M 18.3125 54.390625 
Q 18.3125 48.734375 21.84375 45.5625 
Q 25.390625 42.390625 31.78125 42.390625 
Q 38.140625 42.390625 41.71875 45.5625 
Q 45.3125 48.734375 45.3125 54.390625 
Q 45.3125 60.0625 41.71875 63.234375 
Q 38.140625 66.40625 31.78125 66.40625 
Q 25.390625 66.40625 21.84375 63.234375 
Q 18.3125 60.0625 18.3125 54.390625 
z
" id="DejaVuSans-38"/>
      </defs>
      <g transform="translate(34.696875 133.975219)scale(0.1 -0.1)">
       <use xlink:href="#DejaVuSans-30"/>
       <use x="63.623047" xlink:href="#DejaVuSans-2e"/>
       <use x="95.410156" xlink:href="#DejaVuSans-38"/>
      </g>
     </g>
    </g>
    <g id="ytick_6">
     <g id="line2d_11">
      <g>
       <use style="stroke:#000000;stroke-width:0.8;" x="57.6" xlink:href="#m90e6dc7e74" y="85.824"/>
      </g>
     </g>
     <g id="text_11">
      <!-- 1.0 -->
      <g transform="translate(34.696875 89.623219)scale(0.1 -0.1)">
       <use xlink:href="#DejaVuSans-31"/>
       <use x="63.623047" xlink:href="#DejaVuSans-2e"/>
       <use x="95.410156" xlink:href="#DejaVuSans-30"/>
      </g>
     </g>
    </g>
    <g id="ytick_7">
     <g id="line2d_12">
      <g>
       <use style="stroke:#000000;stroke-width:0.8;" x="57.6" xlink:href="#m90e6dc7e74" y="41.472"/>
      </g>
     </g>
     <g id="text_12">
      <!-- 1.2 -->
      <g transform="translate(34.696875 45.271219)scale(0.1 -0.1)">
       <use xlink:href="#DejaVuSans-31"/>
       <use x="63.623047" xlink:href="#DejaVuSans-2e"/>
       <use x="95.410156" xlink:href="#DejaVuSans-32"/>
      </g>
     </g>
    </g>
   </g>
   <g id="line2d_13">
    <path clip-path="url(#pa27287c16b)" d="M 57.6 85.824 
L 414.72 85.824 
" style="fill:none;stroke:#000000;stroke-dasharray:5.55,2.4;stroke-dashoffset:0;stroke-width:1.5;"/>
   </g>
   <g id="patch_3">
    <path d="M 57.6 307.584 
L 57.6 41.472 
" style="fill:none;stroke:#000000;stroke-linecap:square;stroke-linejoin:miter;stroke-width:0.8;"/>
   </g>
   <g id="patch_4">
    <path d="M 414.72 307.584 
L 414.72 41.472 
" style="fill:none;stroke:#000000;stroke-linecap:square;stroke-linejoin:miter;stroke-width:0.8;"/>
   </g>
   <g id="patch_5">
    <path d="M 57.6 307.584 
L 414.72 307.584 
" style="fill:none;stroke:#000000;stroke-linecap:square;stroke-linejoin:miter;stroke-width:0.8;"/>
   </g>
   <g id="patch_6">
    <path d="M 57.6 41.472 
L 414.72 41.472 
" style="fill:none;stroke:#000000;stroke-linecap:square;stroke-linejoin:miter;stroke-width:0.8;"/>
   </g>
  </g>
 </g>
 <defs>
  <clipPath id="pa27287c16b">
   <rect height="266.112" width="357.12" x="57.6" y="41.472"/>
  </clipPath>
 </defs>
</svg>
